M48
INCH,LZ
T01C.012
T02C.02
T03C.045
T04C.07
T05C.125
;LEADER: 12 
;HEADER: 08_042340a 
;CODE  : ASCII 
;FILE  : ncdrill-1-2.drl for  ... layers TOP and BOTTOM
;DESIGN: ncdrill
;T01 Holesize 1. = 12.000000 Tolerance = +0.000000/-0.000000 PLATED MILS Quantity = 9
;T02 Holesize 2. = 20.000000 Tolerance = +0.000000/-0.000000 PLATED MILS Quantity = 39
;T03 Holesize 3. = 45.000000 Tolerance = +0.000000/-0.000000 PLATED MILS Quantity = 44
;T04 Holesize 4. = 70.000000 Tolerance = +0.000000/-0.000000 PLATED MILS Quantity = 16
;T05 Holesize 5. = 125.000000 Tolerance = +0.000000/-0.000000 NON_PLATED MILS Quantity = 6
%
G90
T01
X0Y0
X-0006Y-0006
X0006Y-0006
X0006Y0006
X-0006Y0006
X0006Y0
X-0006Y0
X0Y-0006
X0Y0006
T02
X0036Y-0064
X0052Y-0022
X0036Y-0033
X0016Y00575
X0001Y0042
X00215Y-00255
X001725Y-005625
X-0006Y0066
X00215Y-0033
X0005Y-0039
X-0015Y-0039
X-00375Y0005
X0065Y-0004
X0062Y-00305
X0039Y-0009
X00335Y00235
X-00375Y0015
X-00375Y0025
X-00085Y0033
X-00195Y005
X-00215Y-00675
X0017Y-0064
X-00375Y-00055
X001168Y002632
X-0038Y-0015
X-0032Y-00315
X-0005Y-0039
X0055Y-0001
X0055Y-0009
X0039Y-0001
X-00265Y006
X0034Y0007
X0106Y-0029
X0106Y-0069
X0105Y004
X0127Y-0036
X0023Y0063
X00335Y-0001
X-00315Y00315
T03
X0029Y0104
R09X-001
X0009Y0076
X0009Y0086
X0019Y0076
X0019Y0086
X0029Y0076
X0029Y0086
X0065Y-0086
R05X001
X-0025Y-0086
R07X001
X01155Y0024
X01255Y0024
X01155Y0014
X01255Y0014
X01155Y0004
X01255Y0004
X0115Y0104
R07X-001
T04
X-011405Y008891
X-011405Y00271
X-00609Y003103
X-00609Y008497
X-011405Y-000909
X-011405Y-00709
X-00609Y-006697
X-00609Y-001303
X023405Y002709
X023405Y00889
X01809Y008497
X01809Y003103
X023405Y-007091
X023405Y-000909
X01809Y-001303
X01809Y-006697
T05
X-008Y-0086
X-0075Y0104
X0125Y-0066
X022Y0104
X0125Y0044
X0245Y-0086
M30
