G04 ================== begin FILE IDENTIFICATION RECORD ==================*
G04 Layout Name:  C:/tmp/20_042340a/worklib/02_042340a_top/physical/08_042340a.brd*
G04 Film Name:    l1_primary*
G04 File Format:  Gerber RS274X*
G04 File Origin:  Cadence Allegro 16.6-2015-S074*
G04 Origin Date:  Tue Aug 30 11:22:50 2016*
G04 *
G04 Layer:  VIA CLASS/TOP*
G04 Layer:  PIN/TOP*
G04 Layer:  ETCH/TOP*
G04 Layer:  PACKAGE GEOMETRY/ETCH_TOP*
G04 Layer:  BOARD GEOMETRY/LYR_TOP*
G04 Layer:  BOARD GEOMETRY/TOOLING_CORNERS*
G04 Layer:  BOARD GEOMETRY/ROOT_NUMBER*
G04 *
G04 Offset:    (0.00 0.00)*
G04 Mirror:    No*
G04 Mode:      Positive*
G04 Rotation:  0*
G04 FullContactRelief:  No*
G04 UndefLineWidth:     8.00*
G04 ================== end FILE IDENTIFICATION RECORD ====================*
%FSLAX55Y55*MOIN*%
%IR0*IPPOS*OFA0.00000B0.00000*MIA0B0*SFA1.00000B1.00000*%
%ADD26R,.062X.106*%
%ADD22C,.02*%
%ADD16C,.035*%
%ADD10C,.09*%
%ADD14C,.065*%
%ADD12R,.09X.09*%
%ADD27R,.091X.091*%
%ADD15R,.065X.065*%
%AMMACRO11*
4,1,36,0.0,-.02,
.003473,-.019696,
.00684,-.018794,
.01,-.017321,
.012856,-.015321,
.015321,-.012856,
.017321,-.01,
.018794,-.00684,
.019696,-.003473,
.02,0.0,
.019696,.003473,
.018794,.00684,
.017321,.01,
.015321,.012856,
.012856,.015321,
.01,.017321,
.00684,.018794,
.003473,.019696,
0.0,.02,
-.003473,.019696,
-.00684,.018794,
-.01,.017321,
-.012856,.015321,
-.015321,.012856,
-.017321,.01,
-.018794,.00684,
-.019696,.003473,
-.02,0.0,
-.019696,-.003473,
-.018794,-.00684,
-.017321,-.01,
-.015321,-.012856,
-.012856,-.015321,
-.01,-.017321,
-.00684,-.018794,
-.003473,-.019696,
0.0,-.02,
0.0*
%
%ADD11MACRO11*%
%ADD20O,.035X.012*%
%ADD21O,.012X.035*%
%ADD25R,.025X.06*%
%ADD23R,.017X.07*%
%ADD18R,.063X.051*%
%ADD24R,.055X.051*%
%ADD17R,.051X.063*%
%ADD19R,.142X.142*%
%ADD13R,.037X.057*%
%ADD28C,.01*%
%ADD29C,.03*%
%ADD30C,.04*%
%ADD31C,.05*%
%ADD32C,.06*%
%ADD33C,.015*%
%ADD34C,.025*%
%ADD35C,.008*%
%ADD36C,.13004*%
%ADD37C,.19904*%
G75*
%LPD*%
G75*
G36*
G01X-23752Y100425D02*
Y86274D01*
G03X-23459Y85567I1000J0D01*
G01X-8997Y71106D01*
G02X-8705Y70443I-707J-707D01*
G01X-8645Y69094D01*
G02X-8877Y68408I-999J-44D01*
G03X-8895Y68386I2895J-2387D01*
G02X-9619Y68023I-772J636D01*
G01X-11098Y67952D01*
G02X-11853Y68244I-48J999D01*
G01X-13567Y69959D01*
G03X-14274Y70252I-707J-707D01*
G01X-65226D01*
G03X-65933Y69959I0J-1000D01*
G01X-87459Y48433D01*
G03X-87752Y47726I707J-707D01*
G01Y-65726D01*
G03X-87459Y-66433I1000J0D01*
G01X-81009Y-72882D01*
G02X-80758Y-73876I-707J-707D01*
G01X-81262Y-75562D01*
G02X-82018Y-76255I-958J286D01*
G03X-89675Y-88331I2018J-9745D01*
G01X-89621Y-88555D01*
X-89719Y-89003D01*
X-90834Y-90419D01*
G02X-91619Y-90800I-785J619D01*
G01X-129000D01*
G02X-130000Y-89800I0J1000D01*
G01Y103386D01*
G02X-129707Y104093I1000J0D01*
G01X-125193Y108607D01*
G02X-124486Y108900I707J-707D01*
G01X-86595D01*
G02X-85807Y108515I0J-1000D01*
G01X-84694Y107091D01*
X-84599Y106639D01*
X-84655Y106415D01*
G03X-66161Y99426I9655J-2416D01*
G01X-66065Y99611D01*
X-65741Y99875D01*
X-63926Y100378D01*
X-63514Y100320D01*
X-63336Y100210D01*
G03X-57550Y101186I2336J3790D01*
G02X-56775Y101554I775J-632D01*
G01X-55225D01*
G02X-54450Y101186I0J-1000D01*
G03X-47550I3450J2814D01*
G02X-46775Y101554I775J-632D01*
G01X-45225D01*
G02X-44450Y101186I0J-1000D01*
G03X-37928Y100778I3450J2814D01*
G01X-37778Y100921D01*
X-37390Y101064D01*
X-35728Y100973D01*
G02X-35019Y100619I-56J-999D01*
G01X-35018Y100618D01*
G03X-26982I4018J3382D01*
G01X-26981Y100619D01*
G02X-26272Y100973I765J-645D01*
G01X-24385Y101076D01*
X-24358Y101050D01*
G03X-23807Y100522I3357J2951D01*
G02X-23752Y100425I-5737J-3317D01*
G37*
G36*
G01X-55196Y-69720D02*
Y-62347D01*
G03X-55727Y-61464I-1000J0D01*
G01X-55834Y-61407D01*
G02X-58189Y-59418I3423J6442D01*
G02X-58396Y-58808I793J609D01*
G01Y-46467D01*
G02X-58139Y-45797I1000J1D01*
G01X-57117Y-44664D01*
X-56787Y-44497D01*
X-56602Y-44478D01*
G03X-55280Y-44133I-463J4478D01*
G01X-55090Y-44052D01*
X-54596D01*
X-54012Y-43466D01*
Y-43315D01*
X-37209Y-26512D01*
G02X-36119Y-26295I707J-707D01*
G01X-35838Y-26411D01*
X-35502Y-26915D01*
Y-28352D01*
G03X-34502Y-29352I1000J0D01*
G01X-27820D01*
G02X-27001Y-29777I1J-1000D01*
G02X-26920Y-29897I-5012J-3470D01*
G02X-26752Y-30451I-832J-555D01*
G01Y-41872D01*
G03X-26459Y-42579I1000J0D01*
G01X-18996Y-50041D01*
G02X-18779Y-51131I-707J-707D01*
G01X-18896Y-51412D01*
X-19399Y-51748D01*
X-34700D01*
G03X-35407Y-52041I0J-1000D01*
G01X-53489Y-70123D01*
G02X-54579Y-70340I-707J707D01*
G01X-54860Y-70224D01*
X-55196Y-69720D01*
G37*
G36*
G01X-61258Y-57440D02*
G02X-65398Y-62468I-8128J2474D01*
G01X-60898Y-67093D01*
X-56398Y-62468D01*
G02X-60538Y-57440I3988J7502D01*
G03X-61258I-360J-346D01*
G37*
G36*
G01X-38246Y-17498D02*
X-38321Y-17487D01*
G03X-42183Y-18754I-679J-4450D01*
G01X-56689Y-33260D01*
G02X-57779Y-33477I-707J707D01*
G01X-58060Y-33361D01*
X-58396Y-32857D01*
Y-27348D01*
G02X-58104Y-26641I1000J1D01*
G01X-44257Y-12794D01*
G02X-43550Y-12502I706J-708D01*
G01X-36502D01*
G02X-35502Y-13502I1J-1000D01*
G01Y-16498D01*
G02X-36502Y-17498I-999J-1D01*
G01X-38246D01*
G37*
G36*
G01X-64891Y-33679D02*
X-75206Y-23365D01*
G02X-75498Y-22658I708J706D01*
G01Y21718D01*
G02X-74881Y22642I1000J0D01*
G01X-74600Y22759D01*
X-74007Y22640D01*
X-57157Y5791D01*
G03X-56450Y5498I707J707D01*
G01X-42000D01*
G03X-38528Y7135I-1J4502D01*
G02X-37757Y7498I771J-637D01*
G01X-36502D01*
G02X-35502Y6498I1J-1000D01*
G01Y-6498D01*
G02X-36502Y-7498I-999J0D01*
G01X-45622D01*
G03X-46329Y-7791I0J-1000D01*
G01X-51176Y-12638D01*
G02X-52165Y-12891I-708J707D01*
G01X-54112Y-12319D01*
X-54486Y-11917D01*
X-54545Y-11649D01*
G03X-62280Y-19384I-6353J-1382D01*
G01X-62012Y-19443D01*
X-61610Y-19817D01*
X-61038Y-21764D01*
G02X-61291Y-22753I-960J-281D01*
G01X-63107Y-24569D01*
G03X-63400Y-25276I707J-707D01*
G01Y-32757D01*
G02X-64017Y-33681I-1000J0D01*
G01X-64298Y-33798D01*
X-64891Y-33679D01*
G37*
G36*
G01X-49123Y22794D02*
X-54904Y28575D01*
G02X-55196Y29282I708J706D01*
G01Y35734D01*
G03X-56196Y36734I-1001J0D01*
G01X-63486D01*
G02X-64410Y37351I0J1000D01*
G01X-64527Y37632D01*
X-64408Y38225D01*
X-52791Y49843D01*
G03X-52498Y50550I-707J707D01*
G01Y57937D01*
G03X-52500Y58042I-4501J-33D01*
G01Y63748D01*
G02X-51500Y64748I1000J0D01*
G01X-25502D01*
G02X-24502Y63748I1J-999D01*
G01Y56648D01*
G03X-23502Y55648I1001J1D01*
G01X-13204D01*
G02X-12497Y55356I1J-1000D01*
G01X-12350Y55209D01*
G02X-12133Y54119I-707J-707D01*
G01X-12249Y53838D01*
X-12753Y53502D01*
X-16352D01*
G03X-17352Y52502I1J-1000D01*
G01Y46502D01*
G02X-18352Y45502I-999J0D01*
G01X-19683D01*
G03X-20390Y45209I0J-1000D01*
G01X-27209Y38390D01*
G03X-27502Y37683I707J-707D01*
G01Y30352D01*
G02X-28502Y29352I-1000J-1D01*
G01X-34502D01*
G03X-35502Y28352I0J-1000D01*
G01Y23502D01*
G02X-36502Y22502I-999J-1D01*
G01X-48416D01*
G02X-49123Y22794I-1J1000D01*
G37*
G36*
G01X32748Y-66121D02*
Y-67739D01*
G02X32455Y-68446I-1000J0D01*
G01X30946Y-69955D01*
G02X30239Y-70248I-707J707D01*
G01X20067D01*
G03X19360Y-70541I0J-1000D01*
G01X12041Y-77860D01*
G03X11748Y-78567I707J-707D01*
G01Y-82588D01*
G02X11528Y-83214I-1000J0D01*
G03X11025Y-83995I3471J-2788D01*
G02X10681Y-84381I-893J450D01*
G01X10548Y-84468D01*
G02X9452I-548J837D01*
G01X9319Y-84381D01*
G02X8975Y-83995I549J836D01*
G03X1550Y-83186I-3975J-2005D01*
G02X775Y-83554I-775J632D01*
G01X-775D01*
G02X-1550Y-83186I0J1000D01*
G03X-8450Y-83187I-3450J-2814D01*
G01X-8593Y-83362D01*
X-8999Y-83555D01*
X-11250D01*
X-11296Y-83498D01*
G03X-12193Y-82522I-3703J-2503D01*
G02X-12248Y-82425I5737J3317D01*
G01Y-80392D01*
G02X-12112Y-79889I1000J0D01*
G02X-10388Y-78005I5208J-3035D01*
G01Y-70738D01*
X-10648D01*
Y-64498D01*
G03X-11648Y-63498I-1000J0D01*
G01X-18352D01*
G03X-19352Y-64498I0J-1000D01*
G01Y-70845D01*
G02X-19767Y-71656I-1000J0D01*
G02X-20049Y-71845I-3044J4237D01*
G02X-20580Y-71998I-532J847D01*
G01X-40218D01*
G02X-41142Y-71381I0J1000D01*
G01X-41258Y-71101D01*
X-41140Y-70506D01*
X-31678Y-61045D01*
G02X-30971Y-60752I707J-707D01*
G01X18048D01*
G02X19048Y-61752I0J-1000D01*
G01Y-66502D01*
G03X20048Y-67502I1000J0D01*
G01X25952D01*
G03X26952Y-66502I0J1000D01*
G01Y-61752D01*
G02X27952Y-60752I1000J0D01*
G01X30386D01*
G02X31166Y-61126I0J-1000D01*
G01X32142Y-62343D01*
G02X32338Y-63185I-780J-625D01*
G01Y-63186D01*
G03X32643Y-65675I3662J-814D01*
G01Y-65676D01*
G02X32748Y-66121I-895J-446D01*
G37*
G36*
G01X-22874Y-75397D02*
G02X-18150Y-77300I55J-6679D01*
G01X-14812Y-74750D01*
X-18150Y-72200D01*
G02X-22874Y-74103I-4669J4776D01*
G03Y-75397I380J-647D01*
G37*
G36*
G01X-23806Y-33326D02*
G02X-21700Y-28150I7297J47D01*
G01X-24250Y-24875D01*
X-26800Y-28150D01*
G02X-24694Y-33326I-5191J-5129D01*
G03X-23806I444J229D01*
G37*
G36*
G01X-16890Y-2466D02*
G02X-21700Y-1850I-1662J6112D01*
G01X-24370Y-5034D01*
X-21700Y-8150D01*
G02X-16633Y-3288I8379J-3660D01*
G03X-16890Y-2466I-371J335D01*
G37*
G36*
G01X-37987Y14315D02*
G02X-34300Y11850I-1193J-5774D01*
G01X-31500Y15000D01*
X-34300Y18150D01*
G02X-37987Y15685I-4880J3309D01*
G03Y14315I729J-685D01*
G37*
G36*
G01X-35157Y15924D02*
G02X-36831Y16616I-4J2360D01*
G01X-37750Y15000D01*
X-36831Y13384D01*
G02X-35157Y14076I1670J-1668D01*
G03Y15924I-383J924D01*
G37*
G36*
G01X-25220Y32075D02*
G02X-26800Y28150I-5726J24D01*
G01X-24250Y24688D01*
X-21700Y28150D01*
G02X-23280Y32075I4146J3949D01*
G03X-25220I-970J-788D01*
G37*
G36*
G01X-20307Y97180D02*
G02X-17998Y102756I7846J17D01*
G01X-21000Y104188D01*
X-24002Y102756D01*
G02X-21693Y97180I-5537J-5559D01*
G03X-20307I693J287D01*
G37*
G36*
G01X-15693Y-79180D02*
G02X-18002Y-84756I-7846J-17D01*
G01X-15000Y-86188D01*
X-11998Y-84756D01*
G02X-14307Y-79180I5537J5559D01*
G03X-15693I-693J-287D01*
G37*
G36*
G01X-14377Y-82426D02*
G02X-11850Y-77300I7473J-498D01*
G01X-15000Y-74562D01*
X-18150Y-77300D01*
G02X-15623Y-82426I-4946J-5624D01*
G03X-14377I623J417D01*
G37*
G36*
G01X6280Y-39871D02*
G02X8150Y-35300I6805J-116D01*
G01X5000Y-32312D01*
X1850Y-35300D01*
G02X3720Y-39871I-4935J-4687D01*
G03X6280I1280J1193D01*
G37*
G36*
G01X-3720D02*
G02X-1850Y-35300I6805J-116D01*
G01X-5000Y-32312D01*
X-8150Y-35300D01*
G02X-6280Y-39871I-4935J-4687D01*
G03X-3720I1280J1193D01*
G37*
G36*
G01X-13720D02*
G02X-11850Y-35300I6805J-116D01*
G01X-15000Y-32312D01*
X-18150Y-35300D01*
G02X-16280Y-39871I-4935J-4687D01*
G03X-13720I1280J1193D01*
G37*
G36*
G01X-5338Y-17552D02*
G02X-8150Y-22700I-7606J813D01*
G01X-5001Y-25375D01*
X-1850Y-22700D01*
G02X-4498Y-17561I4865J5759D01*
G03X-5338Y-17552I-423J-267D01*
G37*
G36*
G01X-7826Y34210D02*
G02X-11850Y35300I-610J5721D01*
G01X-15375Y32735D01*
X-11850Y30200D01*
G02X-7714Y31881I4208J-4425D01*
G03X-7826Y34210I-999J1119D01*
G37*
G36*
G01X6911Y29806D02*
G02X7409Y31004I1812J-51D01*
G01X6559Y34629D01*
X5709Y31004D01*
G02X6207Y29806I-1314J-1249D01*
G03X6911I352J355D01*
G37*
G36*
G01X4352D02*
G02X4850Y31004I1812J-51D01*
G01X4000Y34629D01*
X3150Y31004D01*
G02X3648Y29806I-1314J-1249D01*
G03X4352I352J355D01*
G37*
G36*
G01X1793D02*
G02X2291Y31004I1812J-51D01*
G01X1441Y34629D01*
X591Y31004D01*
G02X1089Y29806I-1314J-1249D01*
G03X1793I352J355D01*
G37*
G36*
G01X-766D02*
G02X-268Y31004I1812J-51D01*
G01X-1118Y34629D01*
X-1968Y31004D01*
G02X-1470Y29806I-1314J-1249D01*
G03X-766I352J355D01*
G37*
G36*
G01X234765Y-86235D02*
X230293Y-90707D01*
G02X229586Y-91000I-707J707D01*
G01X193852D01*
G02X192852Y-90000I0J1000D01*
G01Y-84098D01*
G03X191852Y-83098I-1000J0D01*
G01X129148D01*
G03X128148Y-84098I0J-1000D01*
G01Y-90000D01*
G02X127148Y-91000I-1000J0D01*
G01X120712D01*
G02X119856Y-90517I0J1000D01*
G01X118835Y-88827D01*
X118819Y-88303D01*
X118941Y-88070D01*
G03X111550Y-83186I-3942J2069D01*
G02X110775Y-83554I-775J632D01*
G01X109225D01*
G02X108450Y-83186I0J1000D01*
G03X101550I-3450J-2814D01*
G02X100775Y-83554I-775J632D01*
G01X99225D01*
G02X98450Y-83186I0J1000D01*
G03X91550I-3450J-2814D01*
G02X90775Y-83554I-775J632D01*
G01X89225D01*
G02X88450Y-83186I0J1000D01*
G03X81550I-3450J-2814D01*
G02X80775Y-83554I-775J632D01*
G01X79225D01*
G02X78450Y-83186I0J1000D01*
G03X72551Y-82282I-3450J-2814D01*
G01X72321Y-82433D01*
X71770Y-82458D01*
X70304Y-81668D01*
G03X69830Y-81548I-475J-880D01*
G01X61548D01*
G03X60548Y-82548I0J-1000D01*
G01Y-90000D01*
G02X59548Y-91000I-1000J0D01*
G01X50712D01*
G02X49856Y-90517I0J1000D01*
G01X48835Y-88827D01*
X48819Y-88303D01*
X48941Y-88070D01*
G03X41928Y-82778I-3941J2070D01*
G01X41778Y-82921D01*
X41390Y-83064D01*
X39728Y-82973D01*
G02X39019Y-82619I56J999D01*
G01X39018Y-82618D01*
G03X31379Y-82196I-4018J-3382D01*
G02X30690Y-82472I-690J724D01*
G01X29310D01*
G02X28621Y-82196I1J1000D01*
G03X20526Y-83248I-3622J-3804D01*
G02X20182Y-83586I-852J523D01*
G01X20015Y-83684D01*
G02X19036Y-83705I-508J861D01*
G01X18909Y-83637D01*
G02X18577Y-83350I472J882D01*
G03X18472Y-83214I-3575J-2652D01*
G02X18252Y-82588I780J626D01*
G01Y-81261D01*
G02X18545Y-80554I1000J0D01*
G01X22054Y-77045D01*
G02X22761Y-76752I707J-707D01*
G01X32933D01*
G03X33640Y-76459I0J1000D01*
G01X38959Y-71140D01*
G03X39252Y-70433I-707J707D01*
G01Y-66121D01*
G02X39357Y-65676I1000J-1D01*
G01Y-65675D01*
G03X39662Y-63186I-3357J1675D01*
G01Y-63185D01*
G02X39858Y-62343I976J217D01*
G01X40834Y-61126D01*
G02X41614Y-60752I780J-626D01*
G01X113498D01*
G02X114295Y-61148I0J-1000D01*
G01X115258Y-62420D01*
G02X115423Y-63295I-797J-603D01*
G03X133063Y-60167I9577J-2705D01*
G01X132897Y-59938D01*
X132854Y-59377D01*
X133794Y-57539D01*
G02X134684Y-56994I890J-455D01*
G01X179959D01*
G03X180666Y-56701I0J1000D01*
G01X189145Y-48222D01*
G03X189438Y-47515I-707J707D01*
G01Y-42279D01*
G02X189731Y-41572I1000J0D01*
G01X197709Y-33595D01*
G03X198002Y-32888I-707J707D01*
G01Y50888D01*
G03X197709Y51595I-1000J0D01*
G01X188281Y61022D01*
G02X187988Y61729I707J707D01*
G01X187665Y62052D01*
X186910D01*
X186720Y62133D01*
G03X185328Y62485I-1785J-4132D01*
G01X185141Y62501D01*
X184804Y62667D01*
X183765Y63801D01*
G02X183502Y64477I737J676D01*
G01Y76808D01*
G02X183699Y77404I1000J0D01*
G02X185986Y79421I5874J-4355D01*
G01X185987D01*
X186089Y79478D01*
G03X186600Y80351I-489J872D01*
G01Y89670D01*
G03X185600Y90670I-1000J0D01*
G01X176196D01*
G03X175196Y89670I0J-1000D01*
G01Y80347D01*
G03X175728Y79463I1000J0D01*
G01X175835Y79407D01*
G02X178296Y77311I-3510J-6613D01*
G02X178498Y76708I-798J-603D01*
G01Y64477D01*
G02X178235Y63801I-1000J0D01*
G01X177196Y62667D01*
X176859Y62501D01*
X176672Y62485D01*
G03X175280Y62133I393J-4484D01*
G01X175090Y62052D01*
X174597D01*
X174012Y61467D01*
Y61315D01*
X160791Y48095D01*
G03X160498Y47388I707J-707D01*
G01Y21279D01*
G02X160205Y20572I-1000J0D01*
G01X137959Y-1675D01*
G02X136868Y-1892I-708J707D01*
G01X136588Y-1775D01*
X136252Y-1272D01*
Y17433D01*
G03X135959Y18140I-1000J0D01*
G01X130091Y24007D01*
X129943Y24315D01*
X129925Y24485D01*
G03X123052Y27718I-4425J-485D01*
G02X122027Y27673I-550J835D01*
G01X120803Y28332D01*
G03X120329Y28452I-475J-880D01*
G01X111678D01*
G02X110069Y26921I-5263J3920D01*
G02X109512Y26752I-556J831D01*
G01X107554D01*
G02X106847Y27045I0J1000D01*
G01X81433Y52459D01*
G03X80726Y52752I-707J-707D01*
G01X21054D01*
G02X20195Y53240I0J1000D01*
G01X19181Y54945D01*
X19170Y55473D01*
X19297Y55706D01*
G03X14806Y61053I-3297J1790D01*
G02X13625Y61497I-318J948D01*
G02X13576Y61582I4411J2599D01*
G01X13518Y61686D01*
G03X12645Y62198I-873J-488D01*
G01X10310D01*
G02X9310Y63198I0J1000D01*
G01Y68166D01*
G03X9017Y68873I-1000J0D01*
G01X8049Y69841D01*
G02X7832Y70932I707J708D01*
G01X7949Y71212D01*
X8452Y71548D01*
X12822D01*
G02X14431Y73079I5263J-3920D01*
G02X14988Y73248I556J-831D01*
G01X15425D01*
G02X15522Y73193I-3220J-5792D01*
G03X22478I3478J2807D01*
G02X22575Y73248I3317J-5737D01*
G01X25425D01*
G02X25522Y73193I-3220J-5792D01*
G03X31815Y79471I3478J2806D01*
G02X31445Y80248I630J777D01*
G01Y81752D01*
G02X31815Y82529I1000J0D01*
G03X31807Y89478I-2815J3471D01*
G02X31752Y89575I5737J3317D01*
G01Y98012D01*
G02X31921Y98569I1000J1D01*
G02X33452Y100178I5451J-3654D01*
G01Y107900D01*
G02X34452Y108900I1000J0D01*
G01X39237D01*
G02X40088Y108425I0J-1000D01*
G01X40981Y106975D01*
G02X41023Y106001I-851J-525D01*
G03X48450Y101186I3977J-2001D01*
G02X49225Y101554I775J-632D01*
G01X50775D01*
G02X51550Y101186I0J-1000D01*
G03X58450I3450J2814D01*
G02X59225Y101554I775J-632D01*
G01X60775D01*
G02X61550Y101186I0J-1000D01*
G03X68450I3450J2814D01*
G02X69225Y101554I775J-632D01*
G01X70775D01*
G02X71550Y101186I0J-1000D01*
G03X78450I3450J2814D01*
G02X79225Y101554I775J-632D01*
G01X80775D01*
G02X81550Y101186I0J-1000D01*
G03X88450I3450J2814D01*
G02X89225Y101554I775J-632D01*
G01X90775D01*
G02X91550Y101186I0J-1000D01*
G03X98450I3450J2814D01*
G02X99225Y101554I775J-632D01*
G01X100775D01*
G02X101550Y101186I0J-1000D01*
G03X107449Y100282I3450J2814D01*
G01X107679Y100433D01*
X108230Y100458D01*
X109696Y99668D01*
G03X110170Y99548I475J880D01*
G01X119452D01*
Y99598D01*
X210472D01*
G02X211342Y99091I0J-1000D01*
G03X229655Y106415I8658J4907D01*
G01X229599Y106639D01*
X229694Y107091D01*
X230807Y108515D01*
G02X231595Y108900I788J-615D01*
G01X249000D01*
G02X250000Y107900I0J-1000D01*
G01Y-70586D01*
G02X249707Y-71293I-1000J0D01*
G01X245235Y-75765D01*
G02X244572Y-76057I-707J707D01*
G01X244571D01*
G03X235057Y-85571I429J-9943D01*
G01Y-85572D01*
G02X234765Y-86235I-999J44D01*
G37*
G36*
G01X-13772Y66164D02*
G02X-15800Y63150I-4709J979D01*
G01X-13250Y59812D01*
X-10700Y63150D01*
G02X-12728Y66164I2681J3993D01*
G03X-13772I-522J-538D01*
G37*
G36*
G01X-9871Y56885D02*
G02X-4527Y53996I-824J-7912D01*
G01X-3490Y57496D01*
X-4527Y60996D01*
G02X-9871Y58107I-6168J5023D01*
G03Y56885I435J-611D01*
G37*
G36*
G01X-1886Y63945D02*
G02X-4518Y66883I2209J4627D01*
G01X-6152Y66109D01*
X-6670Y64384D01*
G02X-2732Y62752I11J-5540D01*
G03X-1886Y63945I287J693D01*
G37*
G36*
G01X-19584Y41366D02*
G02X-16150Y39700I-398J-5192D01*
G01X-12688Y42250D01*
X-16150Y44800D01*
G02X-19584Y43134I-3832J3526D01*
G03Y41366I884J-884D01*
G37*
G36*
G01X-5925Y43220D02*
G02X-9850Y44800I24J5726D01*
G01X-13312Y42250D01*
X-9850Y39700D01*
G02X-5925Y41280I3949J-4146D01*
G03Y43220I-788J970D01*
G37*
G36*
G01X-1388Y41095D02*
G02X331Y40384I10J-2410D01*
G01X1310Y41959D01*
X656Y43702D01*
G02X-1063Y43491I-1112J1949D01*
G03X-1388Y41095I153J-1241D01*
G37*
G36*
G01X5199Y42155D02*
G02X1669Y43616I-14J4961D01*
G01X698Y42081D01*
X2000Y41000D01*
X4721D01*
X5199Y42155D01*
G37*
G36*
G01X17569Y76625D02*
G02X12250Y79250I516J7747D01*
G01X8812Y76000D01*
X12250Y72750D01*
G02X17569Y75375I5835J-5122D01*
G03Y76625I-414J625D01*
G37*
G36*
G01X8307Y92820D02*
G02X5998Y87244I-7846J-17D01*
G01X9000Y85812D01*
X12002Y87244D01*
G02X9693Y92820I5537J5559D01*
G03X8307I-693J-287D01*
G37*
G36*
G01X-6668Y109312D02*
G02X-12244Y107002I-5558J5532D01*
G01X-11133Y103867D01*
X-7998Y102756D01*
G02X-5688Y108332I7842J18D01*
G03X-6668Y109312I-693J287D01*
G37*
G36*
G01X-307Y97180D02*
G02X2002Y102756I7846J17D01*
G01X-1000Y104188D01*
X-4002Y102756D01*
G02X-1693Y97180I-5537J-5559D01*
G03X-307I693J287D01*
G37*
G36*
G01X9693D02*
G02X12002Y102756I7846J17D01*
G01X9000Y104188D01*
X5998Y102756D01*
G02X8307Y97180I-5537J-5559D01*
G03X9693I693J287D01*
G37*
G36*
G01X13845Y-80296D02*
G02X11998Y-84757I-6273J-16D01*
G01X15000Y-86312D01*
X18002Y-84757D01*
G02X16155Y-80296I4426J4445D01*
G03X13845I-1155J-478D01*
G37*
G36*
G01X37155Y-65785D02*
G02X37616Y-64669I1571J4D01*
G01X36000Y-63688D01*
X34384Y-64669D01*
G02X34845Y-65785I-1110J-1112D01*
G03X37155I1155J478D01*
G37*
G36*
G01X18502Y-7352D02*
X30502D01*
G03X31502Y-6352I0J1000D01*
G01Y10787D01*
X31230Y11059D01*
G02X30937Y11766I707J707D01*
G01Y12333D01*
G02X31285Y13091I1000J0D01*
G02X31921Y13577I4455J-5171D01*
G02X32481Y13748I559J-829D01*
G01X40248D01*
G02X41248Y12748I0J-1000D01*
G01Y10701D01*
G02X40248Y9701I-1000J0D01*
G01X38049D01*
G03X37049Y8701I0J-1000D01*
G01Y2299D01*
G03X38049Y1299I1000J0D01*
G01X40248D01*
G02X41248Y299I0J-1000D01*
G01Y-10299D01*
G02X40248Y-11299I-1000J0D01*
G01X38049D01*
G03X37049Y-12299I0J-1000D01*
G01Y-12939D01*
G02X36756Y-13646I-1000J0D01*
G01X33041Y-17360D01*
G03X32748Y-18067I707J-707D01*
G01Y-30879D01*
G02X32643Y-31324I-1000J1D01*
G01Y-31325D01*
G03X32263Y-33325I3357J-1674D01*
G01X32281Y-33535D01*
X32146Y-33932D01*
X31007Y-35174D01*
G02X30270Y-35498I-737J676D01*
G01X20352D01*
G02X19352Y-34498I0J1000D01*
G01Y-31250D01*
G02X19654Y-30534I1000J0D01*
G01X20824Y-29392D01*
X21200Y-29245D01*
X21403Y-29250D01*
G03X20070Y-22032I97J3750D01*
G02X19091Y-21909I-381J925D01*
G02X17678Y-20444I3725J5007D01*
G02X17502Y-19877I824J567D01*
G01Y-8352D01*
G02X18502Y-7352I1000J0D01*
G37*
G36*
G01X17439Y-25712D02*
G02X20831Y-27116I10J-4776D01*
G01X21625Y-25508D01*
X20893Y-23863D01*
G02X17501Y-24767I-2781J3619D01*
G03X17439Y-25712I129J-483D01*
G37*
G36*
G01X21537Y-24866D02*
G02X18150Y-22700I925J5178D01*
G01X14875Y-25250D01*
X18150Y-27800D01*
G02X21537Y-25634I4312J-3012D01*
G03Y-24866I-320J384D01*
G37*
G36*
G01X34845Y-31215D02*
G02X34384Y-32331I-1571J-4D01*
G01X36000Y-33312D01*
X37616Y-32331D01*
G02X37155Y-31215I1110J1112D01*
G03X34845I-1155J-478D01*
G37*
G36*
G01X14584Y-17692D02*
G02X11850Y-22700I-7400J790D01*
G01X15000Y-25375D01*
X18150Y-22700D01*
G02X15416Y-17692I4666J5798D01*
G03X14584I-416J-277D01*
G37*
G36*
G01X12510Y6464D02*
G02X17700Y3850I-552J-7554D01*
G01X20375Y7002D01*
X17700Y10150D01*
G02X12497Y7307I-6024J4842D01*
G03X12510Y6464I276J-417D01*
G37*
G36*
G01X57459Y16140D02*
X53640Y19959D01*
G03X52933Y20252I-707J-707D01*
G01X32352D01*
G02X31352Y21252I0J1000D01*
G01Y26502D01*
G03X30352Y27502I-1000J0D01*
G01X24252D01*
G02X23252Y28502I0J1000D01*
G01Y36933D01*
G03X22959Y37640I-1000J0D01*
G01X21057Y39541D01*
G02X20840Y40632I707J708D01*
G01X20957Y40912D01*
X21460Y41248D01*
X76446D01*
G02X77153Y40955I0J-1000D01*
G01X106567Y11541D01*
G03X107274Y11248I707J707D01*
G01X111925D01*
G02X112022Y11193I-3220J-5792D01*
G03X112998Y10296I3479J2806D01*
G01X113055Y10250D01*
Y7999D01*
X112862Y7593D01*
X112687Y7450D01*
G03X118572Y778I2813J-3450D01*
G01X118722Y921D01*
X119110Y1064D01*
X120772Y973D01*
G02X121481Y619I-56J-999D01*
G01X121482Y618D01*
G03X123566Y-883I4018J3382D01*
G01X123568D01*
X123802Y-976D01*
X124126Y-1362D01*
X124517Y-3247D01*
G02X124244Y-4157I-979J-202D01*
G01X114196Y-14205D01*
G02X113489Y-14498I-707J707D01*
G01X70352D01*
G02X69352Y-13498I0J1000D01*
G01Y-7498D01*
G03X68352Y-6498I-1000J0D01*
G01X61648D01*
G03X60648Y-7498I0J-1000D01*
G01Y-13498D01*
G02X59648Y-14498I-1000J0D01*
G01X58511D01*
G02X57804Y-14205I0J1000D01*
G01X57244Y-13646D01*
G02X56951Y-12939I707J707D01*
G01Y-12299D01*
G03X55951Y-11299I-1000J0D01*
G01X53752D01*
G02X52752Y-10299I0J1000D01*
G01Y299D01*
G02X53752Y1299I1000J0D01*
G01X55951D01*
G03X56951Y2299I0J1000D01*
G01Y3017D01*
G02X57139Y3600I1000J-1D01*
G01Y3601D01*
G03X57752Y5500I-2639J1900D01*
G01Y15433D01*
G03X57459Y16140I-1000J0D01*
G37*
G36*
G01X10984Y29223D02*
G02X10061Y26993I-3133J-9D01*
G01X11677Y26136D01*
X13293Y26993D01*
G02X12370Y29223I2210J2221D01*
G03X10984I-693J-287D01*
G37*
G36*
G01X35524Y18175D02*
G02X30150Y18800I-1916J6940D01*
G01X26689Y16221D01*
X30150Y13700D01*
G02X35791Y15960I5589J-5780D01*
G03X35524Y18175I-694J1040D01*
G37*
G36*
G01X19925Y15280D02*
G02X23850Y13700I-24J-5726D01*
G01X27312Y16250D01*
X23850Y18800D01*
G02X19925Y17220I-3949J4146D01*
G03Y15280I788J-970D01*
G37*
G36*
G01X16298Y58004D02*
G02X12527Y60996I1747J6075D01*
G01X11490Y57496D01*
X12527Y53996D01*
G02X16298Y56988I5518J-3083D01*
G03Y58004I-552J508D01*
G37*
G36*
G01X13100Y56803D02*
G02X15330Y55880I9J-3133D01*
G01X16188Y57496D01*
X15330Y59112D01*
G02X13100Y58189I-2221J2210D01*
G03Y56803I287J-693D01*
G37*
G36*
G01X22180Y75307D02*
G02X27756Y72998I17J-7846D01*
G01X29188Y76000D01*
X27756Y79002D01*
G02X22180Y76693I-5559J5537D01*
G03Y75307I287J-693D01*
G37*
G36*
G01X12180D02*
G02X17756Y72998I17J-7846D01*
G01X19188Y76000D01*
X17756Y79002D01*
G02X12180Y76693I-5559J5537D01*
G03Y75307I287J-693D01*
G37*
G36*
G01X25820Y76693D02*
G02X20244Y79002I-17J7846D01*
G01X18812Y76000D01*
X20244Y72998D01*
G02X25820Y75307I5559J-5537D01*
G03Y76693I-287J693D01*
G37*
G36*
G01X28307Y92820D02*
G02X25998Y87244I-7846J-17D01*
G01X29000Y85812D01*
X32002Y87244D01*
G02X29693Y92820I5537J5559D01*
G03X28307I-693J-287D01*
G37*
G36*
G01X18307D02*
G02X15998Y87244I-7846J-17D01*
G01X19000Y85812D01*
X22002Y87244D01*
G02X19693Y92820I5537J5559D01*
G03X18307I-693J-287D01*
G37*
G36*
G01X29625Y95431D02*
G02X32250Y100750I7747J-516D01*
G01X29000Y104188D01*
X25750Y100750D01*
G02X28375Y95431I-5122J-5835D01*
G03X29625I625J414D01*
G37*
G36*
G01X19693Y97180D02*
G02X22002Y102756I7846J17D01*
G01X19000Y104188D01*
X15998Y102756D01*
G02X18307Y97180I-5537J-5559D01*
G03X19693I693J287D01*
G37*
G36*
G01X59802Y-34498D02*
Y-24300D01*
X59793Y-24291D01*
G02X59500Y-23584I707J707D01*
G01Y-22500D01*
G02X60500Y-21500I1000J0D01*
G01X61376D01*
X61377Y-21502D01*
X68623D01*
X68624Y-21500D01*
X70002D01*
X70207Y-21294D01*
G02X70914Y-21002I706J-708D01*
G01X116218D01*
G02X117142Y-21619I0J-1000D01*
G01X117259Y-21900D01*
X117140Y-22493D01*
X104428Y-35206D01*
G02X103721Y-35498I-706J708D01*
G01X60802D01*
G02X59802Y-34498I-1J999D01*
G37*
G36*
G01X43473Y-20022D02*
G02X41400Y-25200I-7409J-38D01*
G01X44500Y-30812D01*
X47600Y-25200D01*
G02X45527Y-20022I5336J5140D01*
G03X43473I-1027J-713D01*
G37*
G36*
G01X72075Y-16780D02*
G02X68150Y-15200I24J5726D01*
G01X64688Y-17750D01*
X68150Y-20300D01*
G02X72075Y-18720I3949J-4146D01*
G03Y-16780I-788J970D01*
G37*
G36*
G01X57925Y-18720D02*
G02X61850Y-20300I-24J-5726D01*
G01X65312Y-17750D01*
X61850Y-15200D01*
G02X57925Y-16780I-3949J4146D01*
G03Y-18720I788J-970D01*
G37*
G36*
G01X52446Y-19921D02*
G02X51331Y-20384I-1115J1110D01*
G01X51779Y-22221D01*
X53616Y-22669D01*
G02X54079Y-21554I1573J0D01*
G03X52446Y-19921I-1155J478D01*
G37*
G36*
G01X117531Y-38007D02*
X171709Y16171D01*
G03X172002Y16878I-707J707D01*
G01Y38500D01*
G02X173002Y39500I1000J0D01*
G01X174500D01*
G02X175500Y38500I0J-1000D01*
G01Y34948D01*
G02X175353Y34426I-1000J0D01*
G03X185563Y26502I5545J-3395D01*
G01X185776Y26722D01*
X186374Y26847D01*
X188374Y26036D01*
G02X188998Y25109I-376J-926D01*
G01Y-6500D01*
G02X187998Y-7500I-1000J0D01*
G01X186600D01*
Y-7330D01*
X176196D01*
G03X175196Y-8330I1J-1000D01*
G01Y-17653D01*
G03X175727Y-18536I1000J0D01*
G01X175834Y-18593D01*
G02X178189Y-20582I-3423J-6442D01*
G02X178396Y-21192I-793J-609D01*
G01Y-33533D01*
G02X178139Y-34203I-1000J-1D01*
G01X177117Y-35336D01*
X176787Y-35503D01*
X176602Y-35522D01*
G03X175280Y-35867I462J-4478D01*
G01X175090Y-35948D01*
X174596D01*
X174012Y-36534D01*
Y-36685D01*
X171491Y-39206D01*
G02X170784Y-39498I-706J708D01*
G01X118453D01*
G02X117529Y-38881I0J1000D01*
G01X117413Y-38600D01*
X117531Y-38007D01*
G37*
G36*
G01X106931Y23375D02*
G02X112250Y20750I-516J-7747D01*
G01X115688Y24000D01*
X112250Y27250D01*
G02X106931Y24625I-5835J5122D01*
G03Y23375I414J-625D01*
G37*
G36*
G01X120188Y18332D02*
G02X122498Y12756I-5532J-5558D01*
G01X125633Y13867D01*
X126744Y17002D01*
G02X121168Y19312I-18J7842D01*
G03X120188Y18332I-287J-693D01*
G37*
G36*
G01X108680Y13307D02*
G02X114256Y10998I17J-7846D01*
G01X115688Y14000D01*
X114256Y17002D01*
G02X108680Y14693I-5559J5537D01*
G03Y13307I287J-693D01*
G37*
G36*
G01X130351Y20782D02*
G02X128502Y25243I4426J4448D01*
G01X125279Y24221D01*
X124257Y20998D01*
G02X128718Y19149I13J-6275D01*
G03X130351Y20782I478J1155D01*
G37*
G36*
G01X181258Y-22560D02*
G02X185398Y-17532I8128J-2474D01*
G01X180898Y-12907D01*
X176398Y-17532D01*
G02X180538Y-22560I-3988J-7502D01*
G03X181258I360J346D01*
G37*
G36*
G01X181369Y75328D02*
G02X185398Y80468I8202J-2280D01*
G01X180897Y85093D01*
X176398Y80468D01*
G02X180639Y75320I-4072J-7675D01*
G03X181369Y75328I361J346D01*
G37*
%LPC*%
G75*
G54D36*
X-114048Y-70905D03*
Y-9094D03*
Y27095D03*
Y88906D03*
X-60898Y84969D03*
X180898Y-66969D03*
X234048Y-70906D03*
Y-9095D03*
Y27094D03*
Y88905D03*
G54D37*
X125000Y44000D03*
%LPD*%
G75*
G54D10*
X-114048Y-70905D03*
Y-9094D03*
Y27095D03*
Y88906D03*
X-60898Y-13031D03*
Y84969D03*
X180898Y-66969D03*
Y31031D03*
X234048Y-70906D03*
Y-9095D03*
Y27094D03*
Y88905D03*
G54D20*
X-9649Y-6890D03*
Y-4921D03*
Y-2953D03*
Y-984D03*
Y984D03*
Y2953D03*
X9649D03*
Y984D03*
Y-984D03*
Y-2953D03*
Y-4921D03*
Y-6890D03*
X-9649Y4921D03*
X9649Y6890D03*
Y4921D03*
X-9649Y6890D03*
G54D11*
X-80000Y-86000D03*
X-75000Y104000D03*
X125000Y-66000D03*
Y44000D03*
X220000Y104000D03*
X245000Y-86000D03*
G54D30*
G01X-31750Y5000D02*
Y-5000D01*
G01X55500Y-30500D02*
X60802D01*
G54D21*
X6890Y-9649D03*
X4921D03*
X2953D03*
X984D03*
X-984D03*
X-2953D03*
X-4921D03*
X-6890D03*
Y9649D03*
X-4921D03*
X-2953D03*
X-984D03*
X984D03*
X2953D03*
X4921D03*
X6890D03*
G54D12*
X-60898Y-66968D03*
Y31032D03*
X180898Y-13032D03*
Y84968D03*
G54D31*
G01X-100000Y-98500D02*
X-130000D01*
G02X-137500Y-91000I0J7500D01*
G01Y-61000D01*
G01Y79000D02*
Y109000D01*
G02X-130000Y116500I7500J0D01*
G01X-100000D01*
G01X-64937Y-40000D02*
X-80000Y-24937D01*
Y41937D01*
X-64937Y57000D01*
Y58000D01*
G01X17250Y-56250D02*
X-33250D01*
X-54099Y-77099D01*
X-66000D01*
X-71000Y-72099D01*
Y-46063D01*
X-64937Y-40000D01*
G01X-39000Y-21937D02*
X-57063Y-40000D01*
G01X-57000Y57937D02*
Y52000D01*
X-71000Y38000D01*
Y26000D01*
X-55000Y10000D01*
X-42000D01*
G01X177063Y-40000D02*
X173063Y-44000D01*
X114000D01*
X110200Y-47800D01*
X-6200D01*
X-10000Y-44000D01*
G01X177063Y58000D02*
X165000Y45937D01*
Y19000D01*
X106000Y-40000D01*
X13000D01*
G01X23000Y-56250D02*
X113751D01*
X117508Y-52493D01*
X178508D01*
X184937Y-46064D01*
Y-40000D01*
G01X17250Y-56250D02*
X23000D01*
G01X184937Y-40000D02*
X193500Y-31437D01*
Y49437D01*
X184937Y58000D01*
G01X257500Y-61000D02*
Y-91000D01*
G02X250000Y-98500I-7500J0D01*
G01X220000D01*
G01Y116500D02*
X250000D01*
G02X257500Y109000I0J-7500D01*
G01Y79000D01*
G54D13*
X-64937Y-40000D03*
X-57063D03*
X-64937Y58000D03*
X-57063D03*
X184937Y-40000D03*
X177063D03*
X184937Y58000D03*
X177063D03*
G54D22*
G01X-37500Y15000D02*
X-31750D01*
X0Y-6000D03*
X-6000Y0D03*
X6000D03*
Y-6000D03*
X-6000D03*
X0Y0D03*
Y6000D03*
X-6000D03*
X6000D03*
G54D32*
G01X40248Y-5000D02*
X47000D01*
G01D02*
X53752D01*
G54D23*
X11677Y34504D03*
X9118D03*
X6559D03*
X4000D03*
X1441D03*
X-1118D03*
X-3677D03*
Y57496D03*
X-1118D03*
X1441D03*
X4000D03*
X6559D03*
X9118D03*
X11677D03*
G54D14*
X-61000Y104000D03*
X-51000D03*
X-41000D03*
X-31000D03*
X-21000D03*
X5000Y-86000D03*
X-5000D03*
X-15000D03*
X9000Y86000D03*
X-11000Y104000D03*
X-1000D03*
X9000D03*
X35000Y-86000D03*
X25000D03*
X15000D03*
X29000Y86000D03*
Y76000D03*
X19000Y86000D03*
Y76000D03*
Y104000D03*
X45000Y-86000D03*
Y104000D03*
X55000D03*
X65000D03*
X95000Y-86000D03*
X85000D03*
X75000D03*
Y104000D03*
X85000D03*
X95000D03*
X115000Y-86000D03*
X105000D03*
X125500Y4000D03*
X115500D03*
X125500Y14000D03*
X115500D03*
X125500Y24000D03*
X105000Y104000D03*
G54D33*
G01X-13250Y60000D02*
Y65750D01*
X-15000Y67500D01*
X-64500D01*
X-85000Y47000D01*
Y-65000D01*
X-68000Y-82000D01*
X-51000D01*
X-43750Y-74750D01*
X-15000D01*
G01X1441Y57496D02*
Y64559D01*
X-21000Y87000D01*
Y104000D01*
G01X-15000Y-86000D02*
Y-74750D01*
G01X-3677Y34504D02*
Y41927D01*
X-4000Y42250D01*
G01X-3677Y57496D02*
X-10746D01*
X-13250Y60000D01*
G01X115500Y24000D02*
X106000D01*
X80000Y50000D01*
X9000D01*
X6559Y52441D01*
Y57496D01*
G01X-11000Y104000D02*
X-6000Y109000D01*
X2000D01*
X4000Y107000D01*
Y98999D01*
X2000Y96999D01*
Y71999D01*
X6559Y67440D01*
Y57496D01*
G01X4000D02*
Y51000D01*
X8000Y47000D01*
X79000D01*
X107000Y19000D01*
X120500D01*
X125500Y14000D01*
G01X4000Y57496D02*
Y66000D01*
X-1000Y71000D01*
Y104000D01*
G01X115500Y14000D02*
X108000D01*
X78000Y44000D01*
X7000D01*
X1441Y49559D01*
Y57496D01*
G01X-1118D02*
Y62118D01*
X-5000Y66000D01*
X-6000D01*
G01X9000Y76000D02*
X19000D01*
G01X9000Y104000D02*
Y86000D01*
G01X11677Y34504D02*
Y26323D01*
G01Y57496D02*
X16000D01*
G01X19000Y76000D02*
X29000D01*
G01Y104000D02*
Y86000D01*
G01X19000Y104000D02*
Y86000D01*
G54D24*
X23000Y-63750D03*
Y-56250D03*
G54D15*
X-25000Y-86000D03*
X9000Y76000D03*
X29000Y104000D03*
X65000Y-86000D03*
X115500Y24000D03*
X115000Y104000D03*
G54D34*
G01X-120353Y-77210D02*
X-114048Y-70905D01*
G01D02*
X-107743Y-64600D01*
G01X-120353D02*
X-114048Y-70905D01*
G01D02*
X-107743Y-77210D01*
G01X-120353Y-15399D02*
X-114048Y-9094D01*
G01D02*
X-107743Y-2789D01*
G01X-120353D02*
X-114048Y-9094D01*
G01D02*
X-107743Y-15399D01*
G01X-120353Y20790D02*
X-114048Y27095D01*
G01D02*
X-107743Y33400D01*
G01X-120353D02*
X-114048Y27095D01*
G01D02*
X-107743Y20790D01*
G01X-120353Y82601D02*
X-114048Y88906D01*
G01D02*
X-107743Y95211D01*
G01X-120353D02*
X-114048Y88906D01*
G01D02*
X-107743Y82601D01*
G01X-67203Y-19336D02*
X-60898Y-13031D01*
G01D02*
X-54593Y-6726D01*
G01X-67203D02*
X-60898Y-13031D01*
G01X-67203Y78664D02*
X-60898Y84969D01*
G01D02*
X-54593Y91274D01*
G01X-67203D02*
X-60898Y84969D01*
G01D02*
X-54593Y78664D01*
G01X-20352Y-67250D02*
X-15000D01*
G01X-31750Y-30352D02*
Y-25000D01*
G01X-36502Y5000D02*
X-31750D01*
G01X-36502Y-5000D02*
X-31750D01*
G01X-36502Y-15000D02*
X-31750D01*
G01Y25000D02*
Y30352D01*
G01X-36502Y25000D02*
X-31750D01*
G01X-24250D02*
Y36750D01*
X-18750Y42250D01*
X-13000D01*
G01X-20750Y54648D02*
Y60000D01*
G01X-25502D02*
X-20750D01*
G01X-36421Y98579D02*
X-31000Y104000D01*
G01D02*
X-25579Y98579D01*
G01X-15000Y-67250D02*
Y-62498D01*
G01Y-67250D02*
X-9648D01*
G01X-13000Y49750D02*
Y54502D01*
G01X-18352Y49750D02*
X-13000D01*
G01X20000Y16250D02*
Y36000D01*
X15000Y41000D01*
X2000D01*
X1000Y42000D01*
G01X-13000Y42250D02*
X-4000D01*
G01D02*
X750D01*
X1000Y42000D01*
G01X35000Y-86000D02*
X40421Y-80579D01*
G01X29579D02*
X35000Y-86000D01*
G01X25000D02*
X30421Y-80579D01*
G01X19579D02*
X25000Y-86000D01*
G01X36000Y-64000D02*
Y-69500D01*
X32000Y-73500D01*
X21000D01*
X15000Y-79500D01*
Y-86000D01*
G01X23000Y-68502D02*
Y-63750D01*
G01X18048D02*
X23000D01*
G01D02*
X27952D01*
G01X15000Y-32750D02*
X20352D01*
G01X36000Y-33000D02*
Y-19000D01*
X39500Y-15500D01*
G01X27750Y-8352D02*
Y-3000D01*
G01D02*
X32502D01*
G01X39500Y298D02*
Y5500D01*
G01X27000Y23750D02*
Y28502D01*
G01Y23750D02*
X32352D01*
G01X27750Y7000D02*
X32502D01*
G01X39500Y5500D02*
Y10702D01*
G01X36048Y5500D02*
X39500D01*
G01X27000Y16250D02*
X20000D01*
G01X44500Y17000D02*
X27750D01*
X27000Y16250D01*
G01X44500Y-15500D02*
Y-30500D01*
G01X65000Y-10250D02*
Y-5498D01*
G01X59648Y-10250D02*
X65000D01*
G01D02*
X70352D01*
G01X54500Y-15500D02*
X56750Y-17750D01*
X65000D01*
G01X49500Y-15500D02*
Y-19500D01*
X52000Y-22000D01*
G01X54500Y-15500D02*
Y-19500D01*
X52000Y-22000D01*
G01X65000Y-17750D02*
X115250D01*
X133000Y0D01*
Y16500D01*
X125500Y24000D01*
G01X49500Y5500D02*
Y17000D01*
G01X44500Y5500D02*
Y17000D01*
G01X49500D02*
X44500D01*
G01X54500Y5500D02*
Y14500D01*
X52000Y17000D01*
X49500D01*
G01X120079Y-1421D02*
X125500Y4000D01*
G01X122271Y-2953D02*
X125500Y4000D01*
G01X174593Y-73274D02*
X180898Y-66969D01*
G01D02*
X187203Y-60664D01*
G01X174593D02*
X180898Y-66969D01*
G01D02*
X187203Y-73274D01*
G01X174593Y24726D02*
X180898Y31031D01*
G01X174593Y37336D02*
X180898Y31031D01*
G01D02*
X187203Y24726D01*
G01X227743Y-77211D02*
X234048Y-70906D01*
G01D02*
X240353Y-64601D01*
G01X227743D02*
X234048Y-70906D01*
G01X227743Y-15400D02*
X234048Y-9095D01*
G01D02*
X240353Y-2790D01*
G01X227743D02*
X234048Y-9095D01*
G01D02*
X240353Y-15400D01*
G01X227743Y20789D02*
X234048Y27094D01*
G01D02*
X240353Y33399D01*
G01X227743D02*
X234048Y27094D01*
G01D02*
X240353Y20789D01*
G01X227743Y82600D02*
X234048Y88905D01*
G01D02*
X240353Y95210D01*
G01X227743D02*
X234048Y88905D01*
G01D02*
X240353Y82600D01*
G54D25*
X39500Y-15500D03*
Y5500D03*
X44500Y-15500D03*
Y5500D03*
X49500Y-15500D03*
Y5500D03*
X54500Y-15500D03*
Y5500D03*
G54D16*
G01X-5000Y-32750D02*
Y-39000D01*
G01X5000D02*
Y-32750D01*
G01X-15000D02*
Y-39000D01*
X-21500Y-67500D03*
X-32000Y-31500D03*
X-38000Y-15000D03*
X-37500Y-5500D03*
Y5000D03*
X-31500Y31500D03*
X-37500Y25000D03*
Y15000D03*
X-26500Y60000D03*
X-19500Y50000D03*
X-5000Y-39000D03*
X-15000D03*
X5000D03*
X11677Y26323D03*
X-8500Y33000D03*
X-6000Y66000D03*
X1000Y42000D03*
X17000Y-64000D03*
X17250Y-56250D03*
X36000Y-64000D03*
X21500Y-33000D03*
Y-25500D03*
X36000Y-33000D03*
X33500Y-1000D03*
X39000D03*
Y-9000D03*
X34000Y7000D03*
X33500Y23500D03*
X23000Y63000D03*
X16000Y57496D03*
X62000Y-30500D03*
X55000Y-9000D03*
Y-1000D03*
X65000Y-4000D03*
X52000Y-22000D03*
X106000Y-69000D03*
X127000Y-36000D03*
X106000Y-29000D03*
X105000Y40000D03*
G54D35*
G01X7000Y168500D02*
X6000Y168167D01*
X5250Y167333D01*
X4750Y166333D01*
X4375Y165000D01*
X4250Y163500D01*
X4375Y162000D01*
X4750Y160667D01*
X5250Y159666D01*
X6000Y158833D01*
X7000Y158500D01*
X8000Y158833D01*
X8750Y159666D01*
X9250Y160667D01*
X9625Y162000D01*
X9750Y163500D01*
X9625Y165000D01*
X9250Y166333D01*
X8750Y167333D01*
X8000Y168167D01*
X7000Y168500D01*
G01X17000Y158500D02*
X17875Y158667D01*
X18875Y159167D01*
X19500Y160000D01*
X19750Y161167D01*
X19500Y162333D01*
X18750Y163333D01*
X17625Y163833D01*
X16375D01*
X15625Y164167D01*
X15000Y165000D01*
X14750Y166167D01*
X15125Y167333D01*
X16000Y168167D01*
X17000Y168500D01*
X18000Y168167D01*
X18875Y167333D01*
X19250Y166167D01*
X19000Y165000D01*
X18375Y164167D01*
X17625Y163833D01*
X16375D01*
X15250Y163333D01*
X14500Y162333D01*
X14250Y161167D01*
X14500Y160000D01*
X15125Y159167D01*
X16125Y158667D01*
X17000Y158500D01*
G01X25375Y161833D02*
X28625D01*
G01X95375D02*
X98625D01*
G01X107000Y168500D02*
X106000Y168167D01*
X105250Y167333D01*
X104750Y166333D01*
X104375Y165000D01*
X104250Y163500D01*
X104375Y162000D01*
X104750Y160667D01*
X105250Y159666D01*
X106000Y158833D01*
X107000Y158500D01*
X108000Y158833D01*
X108750Y159666D01*
X109250Y160667D01*
X109625Y162000D01*
X109750Y163500D01*
X109625Y165000D01*
X109250Y166333D01*
X108750Y167333D01*
X108000Y168167D01*
X107000Y168500D01*
G01X117000Y158500D02*
Y168500D01*
X115500Y166500D01*
G01Y158500D02*
X118500D01*
G01X39500Y138500D02*
Y148500D01*
X42625D01*
X43625Y148000D01*
X44250Y147333D01*
X44500Y146000D01*
X44250Y144667D01*
X43500Y143833D01*
X42625Y143333D01*
X39500D01*
G01X42625D02*
X44500Y138500D01*
G01X54500D02*
X49500D01*
Y148500D01*
X54500D01*
G01X52500Y143667D02*
X49500D01*
G01X58875Y148500D02*
X62000Y138500D01*
X65125Y148500D01*
G01X78875Y138500D02*
X82000Y148500D01*
X85125Y138500D01*
G01X84000Y142000D02*
X80000D01*
G01X14500Y188500D02*
Y178500D01*
X19500D01*
G01X27000D02*
Y188500D01*
X25500Y186500D01*
G01Y178500D02*
X28500D01*
G01X44500D02*
Y188500D01*
X47500D01*
X48500Y188000D01*
X49250Y186833D01*
X49500Y185500D01*
X49250Y184167D01*
X48625Y183167D01*
X47500Y182666D01*
X44500D01*
G01X54500Y178500D02*
Y188500D01*
X57625D01*
X58625Y188000D01*
X59250Y187333D01*
X59500Y186000D01*
X59250Y184667D01*
X58500Y183833D01*
X57625Y183333D01*
X54500D01*
G01X57625D02*
X59500Y178500D01*
G01X65500Y188500D02*
X68500D01*
G01X67000D02*
Y178500D01*
G01X65500D02*
X68500D01*
G01X73750D02*
Y188500D01*
X77000Y180167D01*
X80250Y188500D01*
Y178500D01*
G01X83875D02*
X87000Y188500D01*
X90125Y178500D01*
G01X89000Y182000D02*
X85000D01*
G01X94500Y178500D02*
Y188500D01*
X97625D01*
X98625Y188000D01*
X99250Y187333D01*
X99500Y186000D01*
X99250Y184667D01*
X98500Y183833D01*
X97625Y183333D01*
X94500D01*
G01X97625D02*
X99500Y178500D01*
G01X107000D02*
Y183000D01*
X104500Y188500D01*
G01X109500D02*
X107000Y183000D01*
G01X37000Y168500D02*
X36000Y168167D01*
X35250Y167333D01*
X34750Y166333D01*
X34375Y165000D01*
X34250Y163500D01*
X34375Y162000D01*
X34750Y160667D01*
X35250Y159666D01*
X36000Y158833D01*
X37000Y158500D01*
X38000Y158833D01*
X38750Y159666D01*
X39250Y160667D01*
X39625Y162000D01*
X39750Y163500D01*
X39625Y165000D01*
X39250Y166333D01*
X38750Y167333D01*
X38000Y168167D01*
X37000Y168500D01*
G01X48500Y158500D02*
Y168500D01*
X43875Y161333D01*
X50125D01*
G01X54625Y166833D02*
X55375Y167833D01*
X56250Y168333D01*
X57250Y168500D01*
X58500Y168167D01*
X59375Y167333D01*
X59625Y166333D01*
X59500Y165333D01*
X59000Y164500D01*
X56500Y162833D01*
X55375Y161667D01*
X54625Y160000D01*
X54375Y158500D01*
X59625D01*
G01X64250Y160500D02*
X65000Y159333D01*
X66000Y158667D01*
X67125Y158500D01*
X68125Y158667D01*
X69125Y159500D01*
X69750Y160500D01*
X69875Y161500D01*
X69625Y162666D01*
X68750Y163500D01*
X67875Y163833D01*
X66750D01*
G01X67875D02*
X68625Y164333D01*
X69250Y165166D01*
X69500Y166167D01*
X69250Y167167D01*
X68625Y168000D01*
X67500Y168500D01*
X66375Y168333D01*
X65250Y167667D01*
G01X78500Y158500D02*
Y168500D01*
X73875Y161333D01*
X80125D01*
G01X87000Y168500D02*
X86000Y168167D01*
X85250Y167333D01*
X84750Y166333D01*
X84375Y165000D01*
X84250Y163500D01*
X84375Y162000D01*
X84750Y160667D01*
X85250Y159666D01*
X86000Y158833D01*
X87000Y158500D01*
X88000Y158833D01*
X88750Y159666D01*
X89250Y160667D01*
X89625Y162000D01*
X89750Y163500D01*
X89625Y165000D01*
X89250Y166333D01*
X88750Y167333D01*
X88000Y168167D01*
X87000Y168500D01*
G01X125200Y107000D02*
X124693Y106833D01*
X124313Y106417D01*
X124060Y105917D01*
X123870Y105250D01*
X123807Y104500D01*
X123870Y103750D01*
X124060Y103083D01*
X124313Y102583D01*
X124693Y102167D01*
X125200Y102000D01*
X125707Y102167D01*
X126087Y102583D01*
X126340Y103083D01*
X126530Y103750D01*
X126593Y104500D01*
X126530Y105250D01*
X126340Y105917D01*
X126087Y106417D01*
X125707Y106833D01*
X125200Y107000D01*
G01X130300Y102000D02*
X130743Y102083D01*
X131250Y102333D01*
X131567Y102750D01*
X131693Y103333D01*
X131567Y103917D01*
X131187Y104417D01*
X130617Y104667D01*
X129983D01*
X129603Y104833D01*
X129287Y105250D01*
X129160Y105833D01*
X129350Y106417D01*
X129793Y106833D01*
X130300Y107000D01*
X130807Y106833D01*
X131250Y106417D01*
X131440Y105833D01*
X131313Y105250D01*
X130997Y104833D01*
X130617Y104667D01*
X129983D01*
X129413Y104417D01*
X129033Y103917D01*
X128907Y103333D01*
X129033Y102750D01*
X129350Y102333D01*
X129857Y102083D01*
X130300Y102000D01*
G01X134577Y103667D02*
X136223D01*
G01X140500Y107000D02*
X139993Y106833D01*
X139613Y106417D01*
X139360Y105917D01*
X139170Y105250D01*
X139107Y104500D01*
X139170Y103750D01*
X139360Y103083D01*
X139613Y102583D01*
X139993Y102167D01*
X140500Y102000D01*
X141007Y102167D01*
X141387Y102583D01*
X141640Y103083D01*
X141830Y103750D01*
X141893Y104500D01*
X141830Y105250D01*
X141640Y105917D01*
X141387Y106417D01*
X141007Y106833D01*
X140500Y107000D01*
G01X146360Y102000D02*
Y107000D01*
X144017Y103417D01*
X147183D01*
G01X149497Y106167D02*
X149877Y106667D01*
X150320Y106917D01*
X150827Y107000D01*
X151460Y106833D01*
X151903Y106417D01*
X152030Y105917D01*
X151967Y105417D01*
X151713Y105000D01*
X150447Y104167D01*
X149877Y103583D01*
X149497Y102750D01*
X149370Y102000D01*
X152030D01*
G01X154407Y103000D02*
X154787Y102417D01*
X155293Y102083D01*
X155863Y102000D01*
X156370Y102083D01*
X156877Y102500D01*
X157193Y103000D01*
X157257Y103500D01*
X157130Y104083D01*
X156687Y104500D01*
X156243Y104667D01*
X155673D01*
G01X156243D02*
X156623Y104917D01*
X156940Y105333D01*
X157067Y105833D01*
X156940Y106333D01*
X156623Y106750D01*
X156053Y107000D01*
X155483Y106917D01*
X154913Y106583D01*
G01X161660Y102000D02*
Y107000D01*
X159317Y103417D01*
X162483D01*
G01X166000Y107000D02*
X165493Y106833D01*
X165113Y106417D01*
X164860Y105917D01*
X164670Y105250D01*
X164607Y104500D01*
X164670Y103750D01*
X164860Y103083D01*
X165113Y102583D01*
X165493Y102167D01*
X166000Y102000D01*
X166507Y102167D01*
X166887Y102583D01*
X167140Y103083D01*
X167330Y103750D01*
X167393Y104500D01*
X167330Y105250D01*
X167140Y105917D01*
X166887Y106417D01*
X166507Y106833D01*
X166000Y107000D01*
G01X174933Y102000D02*
Y107000D01*
X176517D01*
X177023Y106750D01*
X177340Y106417D01*
X177467Y105750D01*
X177340Y105083D01*
X176960Y104667D01*
X176517Y104417D01*
X174933D01*
G01X176517D02*
X177467Y102000D01*
G01X182567D02*
X180033D01*
Y107000D01*
X182567D01*
G01X181553Y104583D02*
X180033D01*
G01X184817Y107000D02*
X186400Y102000D01*
X187983Y107000D01*
G01X195017Y102000D02*
X196600Y107000D01*
X198183Y102000D01*
G01X197613Y103750D02*
X195587D01*
G01X205597Y107000D02*
X208003D01*
X205597Y102000D01*
X208003D01*
G01X131183Y-90500D02*
Y-85500D01*
X132703D01*
X133210Y-85750D01*
X133590Y-86333D01*
X133717Y-87000D01*
X133590Y-87667D01*
X133273Y-88167D01*
X132703Y-88417D01*
X131183D01*
G01X136283Y-90500D02*
Y-85500D01*
X137867D01*
X138373Y-85750D01*
X138690Y-86083D01*
X138817Y-86750D01*
X138690Y-87417D01*
X138310Y-87833D01*
X137867Y-88083D01*
X136283D01*
G01X137867D02*
X138817Y-90500D01*
G01X141890Y-85500D02*
X143410D01*
G01X142650D02*
Y-90500D01*
G01X141890D02*
X143410D01*
G01X146103D02*
Y-85500D01*
X147750Y-89667D01*
X149397Y-85500D01*
Y-90500D01*
G01X151267D02*
X152850Y-85500D01*
X154433Y-90500D01*
G01X153863Y-88750D02*
X151837D01*
G01X156683Y-90500D02*
Y-85500D01*
X158267D01*
X158773Y-85750D01*
X159090Y-86083D01*
X159217Y-86750D01*
X159090Y-87417D01*
X158710Y-87833D01*
X158267Y-88083D01*
X156683D01*
G01X158267D02*
X159217Y-90500D01*
G01X163050D02*
Y-88250D01*
X161783Y-85500D01*
G01X164317D02*
X163050Y-88250D01*
G01X171920Y-89833D02*
X172427Y-90250D01*
X172997Y-90500D01*
X173503D01*
X174010Y-90250D01*
X174390Y-89833D01*
X174580Y-89250D01*
X174453Y-88667D01*
X174137Y-88167D01*
X173567Y-87833D01*
X172807Y-87667D01*
X172363Y-87333D01*
X172173Y-86750D01*
X172300Y-86167D01*
X172617Y-85750D01*
X173060Y-85500D01*
X173503D01*
X173947Y-85667D01*
X174327Y-86083D01*
G01X177590Y-85500D02*
X179110D01*
G01X178350D02*
Y-90500D01*
G01X177590D02*
X179110D01*
G01X182057D02*
Y-85500D01*
X183323D01*
X183830Y-85750D01*
X184210Y-86083D01*
X184527Y-86583D01*
X184780Y-87167D01*
X184843Y-88000D01*
X184780Y-88833D01*
X184527Y-89417D01*
X184210Y-89917D01*
X183830Y-90250D01*
X183323Y-90500D01*
X182057D01*
G01X189817D02*
X187283D01*
Y-85500D01*
X189817D01*
G01X188803Y-87917D02*
X187283D01*
G54D17*
X-31750Y-25000D03*
X-24250D03*
X-31750Y-5000D03*
X-24250D03*
X-31750Y5000D03*
X-24250D03*
X-31750Y-15000D03*
X-24250D03*
X-31750Y25000D03*
X-24250D03*
X-31750Y15000D03*
X-24250D03*
X-20750Y60000D03*
X-13250D03*
X20250Y7000D03*
X27750D03*
X20250Y-3000D03*
X27750D03*
G54D26*
X55500Y-30500D03*
X44500D03*
G54D18*
X-15000Y-67250D03*
Y-74750D03*
X-5000Y-32750D03*
Y-25250D03*
X-15000Y-32750D03*
Y-25250D03*
X5000Y-32750D03*
Y-25250D03*
X-15000Y25250D03*
Y32750D03*
X-13000Y49750D03*
Y42250D03*
X15000Y-32750D03*
Y-25250D03*
X27000Y23750D03*
Y16250D03*
X65000Y-10250D03*
Y-17750D03*
G54D27*
X47000Y-5000D03*
G54D28*
G01X-24250D02*
Y-6250D01*
X-28000Y-10000D01*
X-45000D01*
X-60898Y-25898D01*
Y-66968D01*
G01X-24250Y-15000D02*
Y-16250D01*
X-28000Y-20000D01*
X-37063D01*
X-39000Y-21937D01*
G01X-24250Y15000D02*
Y16251D01*
X-27999Y20000D01*
X-49866D01*
X-60898Y31032D01*
G01X-57063Y58000D02*
X-57000Y57937D01*
G01X-42000Y10000D02*
X-28000D01*
X-24250Y6250D01*
Y5000D01*
G01X-20352Y-67250D02*
X-21250D01*
X-21500Y-67500D01*
G01X-24250Y-25000D02*
Y-41250D01*
X-13500Y-52000D01*
X112000D01*
X116000Y-48000D01*
X176898D01*
X180898Y-44000D01*
Y-13032D01*
G01X-9649Y-2953D02*
X-22203D01*
X-24250Y-5000D01*
G01X-9649Y-6890D02*
Y-10399D01*
X-24250Y-25000D01*
G01X-9649Y-984D02*
X-18266D01*
X-24250Y5000D01*
G01X-9649Y-4921D02*
X-14171D01*
X-24250Y-15000D01*
G01Y15000D02*
X-19000Y9750D01*
Y6000D01*
X-13984Y984D01*
X-9649D01*
G01X-24250Y25000D02*
X-17000Y17750D01*
Y9000D01*
X-12921Y4921D01*
X-9649D01*
G01X-25502Y60000D02*
X-26500D01*
G01X-18352Y49750D02*
X-19250D01*
X-19500Y50000D01*
G01X-10000Y-44000D02*
Y-29650D01*
X-14400Y-25250D01*
X-15000D01*
G01X180898Y84968D02*
X181000Y84866D01*
Y54000D01*
X169500Y42500D01*
Y17500D01*
X108000Y-44000D01*
X3500D01*
X0Y-40500D01*
Y-29650D01*
X-4400Y-25250D01*
X-5000D01*
G01X13000Y-40000D02*
X10550Y-37550D01*
Y-30200D01*
X5600Y-25250D01*
X5000D01*
G01X9649Y984D02*
X984D01*
G01X-9649Y2953D02*
X-2953D01*
X0Y0D01*
G01D02*
X984Y984D01*
G01D02*
X4921Y4921D01*
X9649D01*
G01X2953Y-9649D02*
Y-13203D01*
X15000Y-25250D01*
G01D02*
Y-4000D01*
X11984Y-984D01*
X9649D01*
G01X-6890Y-9649D02*
Y-17140D01*
X-15000Y-25250D01*
G01X-4921Y-9649D02*
Y-25171D01*
X-5000Y-25250D01*
G01X-2953Y-9649D02*
Y-17297D01*
X5000Y-25250D01*
G01X9649Y2953D02*
X14297D01*
X20250Y-3000D01*
G01X6559Y34504D02*
Y22560D01*
X984Y16985D01*
Y9649D01*
G01X-984D02*
Y19016D01*
X4000Y24000D01*
Y34504D01*
G01X-2953Y9649D02*
Y21047D01*
X1441Y25441D01*
Y34504D01*
G01X-6890Y9649D02*
Y21110D01*
X-1118Y26882D01*
Y34504D01*
G01X9649Y6890D02*
X20140D01*
X20250Y7000D01*
G01X-9649Y6890D02*
Y19899D01*
X-15000Y25250D01*
G01X2953Y9649D02*
Y12953D01*
X4500Y14500D01*
G01D02*
X4921Y14079D01*
Y9649D01*
G01X18048Y-63750D02*
X17250D01*
X17000Y-64000D01*
G01X21500Y-25500D02*
X21250Y-25250D01*
X15000D01*
G01X32502Y-3000D02*
X33500D01*
G01X32502Y7000D02*
X34000D01*
G01X32352Y23750D02*
X33250D01*
X33500Y23500D01*
G01X65000Y-5498D02*
Y-4000D01*
G54D19*
X0Y0D03*
G54D29*
G01X-8500Y33000D02*
X-14750D01*
X-15000Y32750D01*
G01X20000Y16250D02*
X6250D01*
X4500Y14500D01*
M02*
