G04 ================== begin FILE IDENTIFICATION RECORD ==================*
G04 Layout Name:  C:/tmp/20_042340a/worklib/02_042340a_top/physical/08_042340a.brd*
G04 Film Name:    mask_sec*
G04 File Format:  Gerber RS274X*
G04 File Origin:  Cadence Allegro 16.6-2015-S074*
G04 Origin Date:  Tue Aug 30 11:22:50 2016*
G04 *
G04 Layer:  VIA CLASS/SOLDERMASK_BOTTOM*
G04 Layer:  PIN/SOLDERMASK_BOTTOM*
G04 Layer:  PACKAGE GEOMETRY/SOLDERMASK_BOTTOM*
G04 Layer:  BOARD GEOMETRY/TOOLING_CORNERS*
G04 Layer:  BOARD GEOMETRY/SOLDERMASK_BOTTOM*
G04 Layer:  BOARD GEOMETRY/ROOT_NUMBER*
G04 *
G04 Offset:    (0.00 0.00)*
G04 Mirror:    No*
G04 Mode:      Positive*
G04 Rotation:  0*
G04 FullContactRelief:  No*
G04 UndefLineWidth:     8.00*
G04 ================== end FILE IDENTIFICATION RECORD ====================*
%FSLAX55Y55*MOIN*%
%IR0*IPPOS*OFA0.00000B0.00000*MIA0B0*SFA1.00000B1.00000*%
%ADD15C,.025*%
%ADD13C,.07*%
%ADD14R,.07X.07*%
%ADD10C,.095*%
%ADD12R,.095X.095*%
%ADD11C,.145*%
%ADD16C,.05*%
%ADD17C,.008*%
G75*
%LPD*%
G75*
G54D10*
X-114048Y-70905D03*
Y-9094D03*
Y27095D03*
Y88906D03*
X-60898Y-13031D03*
Y84969D03*
X180898Y-66969D03*
Y31031D03*
X234048Y-70906D03*
Y-9095D03*
Y27094D03*
Y88905D03*
G54D11*
X-80000Y-86000D03*
X-75000Y104000D03*
X125000Y-66000D03*
Y44000D03*
X220000Y104000D03*
X245000Y-86000D03*
G54D12*
X-60898Y-66968D03*
Y31032D03*
X180898Y-13032D03*
Y84968D03*
G54D13*
X-61000Y104000D03*
X-51000D03*
X-41000D03*
X-31000D03*
X-21000D03*
X5000Y-86000D03*
X-5000D03*
X-15000D03*
X9000Y86000D03*
X-11000Y104000D03*
X-1000D03*
X9000D03*
X35000Y-86000D03*
X25000D03*
X15000D03*
X29000Y86000D03*
Y76000D03*
X19000Y86000D03*
Y76000D03*
Y104000D03*
X45000Y-86000D03*
Y104000D03*
X55000D03*
X65000D03*
X95000Y-86000D03*
X85000D03*
X75000D03*
Y104000D03*
X85000D03*
X95000D03*
X115000Y-86000D03*
X105000D03*
X125500Y4000D03*
X115500D03*
X125500Y14000D03*
X115500D03*
X125500Y24000D03*
X105000Y104000D03*
G54D14*
X-25000Y-86000D03*
X9000Y76000D03*
X29000Y104000D03*
X65000Y-86000D03*
X115500Y24000D03*
X115000Y104000D03*
G54D15*
X0Y-6000D03*
X-6000Y0D03*
X6000D03*
Y-6000D03*
X-6000D03*
X0Y0D03*
Y6000D03*
X-6000D03*
X6000D03*
G54D16*
G01X-100000Y-98500D02*
X-130000D01*
G02X-137500Y-91000I0J7500D01*
G01Y-61000D01*
G01Y79000D02*
Y109000D01*
G02X-130000Y116500I7500J0D01*
G01X-100000D01*
G01X257500Y-61000D02*
Y-91000D01*
G02X250000Y-98500I-7500J0D01*
G01X220000D01*
G01Y116500D02*
X250000D01*
G02X257500Y109000I0J-7500D01*
G01Y79000D01*
G54D17*
G01X-36125Y179833D02*
X-35125Y179000D01*
X-34000Y178500D01*
X-33000D01*
X-32000Y179000D01*
X-31250Y179833D01*
X-30875Y181000D01*
X-31125Y182166D01*
X-31750Y183167D01*
X-32875Y183833D01*
X-34375Y184167D01*
X-35250Y184833D01*
X-35625Y186000D01*
X-35375Y187167D01*
X-34750Y188000D01*
X-33875Y188500D01*
X-33000D01*
X-32125Y188167D01*
X-31375Y187333D01*
G01X-23500Y178500D02*
X-24500Y178667D01*
X-25375Y179333D01*
X-26125Y180333D01*
X-26625Y181500D01*
X-26875Y182833D01*
Y184167D01*
X-26625Y185500D01*
X-26125Y186667D01*
X-25375Y187667D01*
X-24500Y188333D01*
X-23500Y188500D01*
X-22500Y188333D01*
X-21625Y187667D01*
X-20875Y186667D01*
X-20375Y185500D01*
X-20125Y184167D01*
Y182833D01*
X-20375Y181500D01*
X-20875Y180333D01*
X-21625Y179333D01*
X-22500Y178667D01*
X-23500Y178500D01*
G01X-16000Y188500D02*
Y178500D01*
X-11000D01*
G01X-6250D02*
Y188500D01*
X-3750D01*
X-2750Y188000D01*
X-2000Y187333D01*
X-1375Y186333D01*
X-875Y185166D01*
X-750Y183500D01*
X-875Y181833D01*
X-1375Y180667D01*
X-2000Y179666D01*
X-2750Y179000D01*
X-3750Y178500D01*
X-6250D01*
G01X9000D02*
X4000D01*
Y188500D01*
X9000D01*
G01X7000Y183667D02*
X4000D01*
G01X14000Y178500D02*
Y188500D01*
X17125D01*
X18125Y188000D01*
X18750Y187333D01*
X19000Y186000D01*
X18750Y184667D01*
X18000Y183833D01*
X17125Y183333D01*
X14000D01*
G01X17125D02*
X19000Y178500D01*
G01X23250D02*
Y188500D01*
X26500Y180167D01*
X29750Y188500D01*
Y178500D01*
G01X33375D02*
X36500Y188500D01*
X39625Y178500D01*
G01X38500Y182000D02*
X34500D01*
G01X43875Y179833D02*
X44875Y179000D01*
X46000Y178500D01*
X47000D01*
X48000Y179000D01*
X48750Y179833D01*
X49125Y181000D01*
X48875Y182166D01*
X48250Y183167D01*
X47125Y183833D01*
X45625Y184167D01*
X44750Y184833D01*
X44375Y186000D01*
X44625Y187167D01*
X45250Y188000D01*
X46125Y188500D01*
X47000D01*
X47875Y188167D01*
X48625Y187333D01*
G01X53750Y178500D02*
Y188500D01*
G01X58500D02*
X53750Y182333D01*
G01X59250Y178500D02*
X55875Y185166D01*
G01X73875Y179833D02*
X74875Y179000D01*
X76000Y178500D01*
X77000D01*
X78000Y179000D01*
X78750Y179833D01*
X79125Y181000D01*
X78875Y182166D01*
X78250Y183167D01*
X77125Y183833D01*
X75625Y184167D01*
X74750Y184833D01*
X74375Y186000D01*
X74625Y187167D01*
X75250Y188000D01*
X76125Y188500D01*
X77000D01*
X77875Y188167D01*
X78625Y187333D01*
G01X89000Y178500D02*
X84000D01*
Y188500D01*
X89000D01*
G01X87000Y183667D02*
X84000D01*
G01X99250Y187667D02*
X98500Y188167D01*
X97625Y188500D01*
X96625D01*
X95500Y188000D01*
X94625Y187167D01*
X94000Y186167D01*
X93500Y184500D01*
X93375Y183000D01*
X93625Y181500D01*
X94000Y180500D01*
X94750Y179500D01*
X95625Y178833D01*
X96500Y178500D01*
X97375D01*
X98250Y178833D01*
X99000Y179333D01*
X99625Y180000D01*
G01X106500Y178500D02*
X105500Y178667D01*
X104625Y179333D01*
X103875Y180333D01*
X103375Y181500D01*
X103125Y182833D01*
Y184167D01*
X103375Y185500D01*
X103875Y186667D01*
X104625Y187667D01*
X105500Y188333D01*
X106500Y188500D01*
X107500Y188333D01*
X108375Y187667D01*
X109125Y186667D01*
X109625Y185500D01*
X109875Y184167D01*
Y182833D01*
X109625Y181500D01*
X109125Y180333D01*
X108375Y179333D01*
X107500Y178667D01*
X106500Y178500D01*
G01X113625D02*
Y188500D01*
X119375Y178500D01*
Y188500D01*
G01X123750Y178500D02*
Y188500D01*
X126250D01*
X127250Y188000D01*
X128000Y187333D01*
X128625Y186333D01*
X129125Y185166D01*
X129250Y183500D01*
X129125Y181833D01*
X128625Y180667D01*
X128000Y179666D01*
X127250Y179000D01*
X126250Y178500D01*
X123750D01*
G01X133375D02*
X136500Y188500D01*
X139625Y178500D01*
G01X138500Y182000D02*
X134500D01*
G01X144000Y178500D02*
Y188500D01*
X147125D01*
X148125Y188000D01*
X148750Y187333D01*
X149000Y186000D01*
X148750Y184667D01*
X148000Y183833D01*
X147125Y183333D01*
X144000D01*
G01X147125D02*
X149000Y178500D01*
G01X156500D02*
Y183000D01*
X154000Y188500D01*
G01X159000D02*
X156500Y183000D01*
G01X6500Y168500D02*
X5500Y168167D01*
X4750Y167333D01*
X4250Y166333D01*
X3875Y165000D01*
X3750Y163500D01*
X3875Y162000D01*
X4250Y160667D01*
X4750Y159666D01*
X5500Y158833D01*
X6500Y158500D01*
X7500Y158833D01*
X8250Y159666D01*
X8750Y160667D01*
X9125Y162000D01*
X9250Y163500D01*
X9125Y165000D01*
X8750Y166333D01*
X8250Y167333D01*
X7500Y168167D01*
X6500Y168500D01*
G01X16500Y158500D02*
X17375Y158667D01*
X18375Y159167D01*
X19000Y160000D01*
X19250Y161167D01*
X19000Y162333D01*
X18250Y163333D01*
X17125Y163833D01*
X15875D01*
X15125Y164167D01*
X14500Y165000D01*
X14250Y166167D01*
X14625Y167333D01*
X15500Y168167D01*
X16500Y168500D01*
X17500Y168167D01*
X18375Y167333D01*
X18750Y166167D01*
X18500Y165000D01*
X17875Y164167D01*
X17125Y163833D01*
X15875D01*
X14750Y163333D01*
X14000Y162333D01*
X13750Y161167D01*
X14000Y160000D01*
X14625Y159167D01*
X15625Y158667D01*
X16500Y158500D01*
G01X24875Y161833D02*
X28125D01*
G01X94875D02*
X98125D01*
G01X106500Y168500D02*
X105500Y168167D01*
X104750Y167333D01*
X104250Y166333D01*
X103875Y165000D01*
X103750Y163500D01*
X103875Y162000D01*
X104250Y160667D01*
X104750Y159666D01*
X105500Y158833D01*
X106500Y158500D01*
X107500Y158833D01*
X108250Y159666D01*
X108750Y160667D01*
X109125Y162000D01*
X109250Y163500D01*
X109125Y165000D01*
X108750Y166333D01*
X108250Y167333D01*
X107500Y168167D01*
X106500Y168500D01*
G01X114125Y162666D02*
X115000Y163833D01*
X115750Y164500D01*
X116750Y164833D01*
X117625Y164500D01*
X118250Y163833D01*
X118750Y162833D01*
X118875Y161667D01*
X118750Y160667D01*
X118250Y159666D01*
X117500Y158833D01*
X116625Y158500D01*
X115625Y158833D01*
X114750Y159833D01*
X114250Y161333D01*
X114125Y163000D01*
X114375Y165166D01*
X114750Y166333D01*
X115375Y167500D01*
X116250Y168333D01*
X117125Y168500D01*
X118000Y168167D01*
X118625Y167333D01*
G01X39500Y138500D02*
Y148500D01*
X42625D01*
X43625Y148000D01*
X44250Y147333D01*
X44500Y146000D01*
X44250Y144667D01*
X43500Y143833D01*
X42625Y143333D01*
X39500D01*
G01X42625D02*
X44500Y138500D01*
G01X54500D02*
X49500D01*
Y148500D01*
X54500D01*
G01X52500Y143667D02*
X49500D01*
G01X58875Y148500D02*
X62000Y138500D01*
X65125Y148500D01*
G01X78875Y138500D02*
X82000Y148500D01*
X85125Y138500D01*
G01X84000Y142000D02*
X80000D01*
G01X37000Y168500D02*
X36000Y168167D01*
X35250Y167333D01*
X34750Y166333D01*
X34375Y165000D01*
X34250Y163500D01*
X34375Y162000D01*
X34750Y160667D01*
X35250Y159666D01*
X36000Y158833D01*
X37000Y158500D01*
X38000Y158833D01*
X38750Y159666D01*
X39250Y160667D01*
X39625Y162000D01*
X39750Y163500D01*
X39625Y165000D01*
X39250Y166333D01*
X38750Y167333D01*
X38000Y168167D01*
X37000Y168500D01*
G01X48500Y158500D02*
Y168500D01*
X43875Y161333D01*
X50125D01*
G01X54625Y166833D02*
X55375Y167833D01*
X56250Y168333D01*
X57250Y168500D01*
X58500Y168167D01*
X59375Y167333D01*
X59625Y166333D01*
X59500Y165333D01*
X59000Y164500D01*
X56500Y162833D01*
X55375Y161667D01*
X54625Y160000D01*
X54375Y158500D01*
X59625D01*
G01X64250Y160500D02*
X65000Y159333D01*
X66000Y158667D01*
X67125Y158500D01*
X68125Y158667D01*
X69125Y159500D01*
X69750Y160500D01*
X69875Y161500D01*
X69625Y162666D01*
X68750Y163500D01*
X67875Y163833D01*
X66750D01*
G01X67875D02*
X68625Y164333D01*
X69250Y165166D01*
X69500Y166167D01*
X69250Y167167D01*
X68625Y168000D01*
X67500Y168500D01*
X66375Y168333D01*
X65250Y167667D01*
G01X78500Y158500D02*
Y168500D01*
X73875Y161333D01*
X80125D01*
G01X87000Y168500D02*
X86000Y168167D01*
X85250Y167333D01*
X84750Y166333D01*
X84375Y165000D01*
X84250Y163500D01*
X84375Y162000D01*
X84750Y160667D01*
X85250Y159666D01*
X86000Y158833D01*
X87000Y158500D01*
X88000Y158833D01*
X88750Y159666D01*
X89250Y160667D01*
X89625Y162000D01*
X89750Y163500D01*
X89625Y165000D01*
X89250Y166333D01*
X88750Y167333D01*
X88000Y168167D01*
X87000Y168500D01*
M02*
