G04 ================== begin FILE IDENTIFICATION RECORD ==================*
G04 Layout Name:  C:/tmp/20_042340a/worklib/02_042340a_top/physical/08_042340a.brd*
G04 Film Name:    silk_sec*
G04 File Format:  Gerber RS274X*
G04 File Origin:  Cadence Allegro 16.6-2015-S074*
G04 Origin Date:  Tue Aug 30 11:22:50 2016*
G04 *
G04 Layer:  PACKAGE GEOMETRY/SILKSCREEN_BOTTOM*
G04 Layer:  BOARD GEOMETRY/TOOLING_CORNERS*
G04 Layer:  BOARD GEOMETRY/SILKSCREEN_BOTTOM*
G04 Layer:  BOARD GEOMETRY/ROOT_NUMBER*
G04 Layer:  REF DES/SILKSCREEN_BOTTOM*
G04 Layer:  MANUFACTURING/SILK_DETAIL_BOTTOM*
G04 *
G04 Offset:    (0.00 0.00)*
G04 Mirror:    No*
G04 Mode:      Positive*
G04 Rotation:  0*
G04 FullContactRelief:  No*
G04 UndefLineWidth:     8.00*
G04 ================== end FILE IDENTIFICATION RECORD ====================*
%FSLAX55Y55*MOIN*%
%IR0*IPPOS*OFA0.00000B0.00000*MIA0B0*SFA1.00000B1.00000*%
%ADD10C,.05*%
%ADD11C,.008*%
G75*
%LPD*%
G75*
G54D10*
G01X-100000Y-98500D02*
X-130000D01*
G02X-137500Y-91000I0J7500D01*
G01Y-61000D01*
G01Y79000D02*
Y109000D01*
G02X-130000Y116500I7500J0D01*
G01X-100000D01*
G01X257500Y-61000D02*
Y-91000D01*
G02X250000Y-98500I-7500J0D01*
G01X220000D01*
G01Y116500D02*
X250000D01*
G02X257500Y109000I0J-7500D01*
G01Y79000D01*
G54D11*
G01X-60701Y-74058D02*
Y-77058D01*
G01X-62868Y-75433D02*
X-58534D01*
G01X-60701Y23942D02*
Y20942D01*
G01X-62868Y22567D02*
X-58534D01*
G01X-36625Y179833D02*
X-35625Y179000D01*
X-34500Y178500D01*
X-33500D01*
X-32500Y179000D01*
X-31750Y179833D01*
X-31375Y181000D01*
X-31625Y182166D01*
X-32250Y183167D01*
X-33375Y183833D01*
X-34875Y184167D01*
X-35750Y184833D01*
X-36125Y186000D01*
X-35875Y187167D01*
X-35250Y188000D01*
X-34375Y188500D01*
X-33500D01*
X-32625Y188167D01*
X-31875Y187333D01*
G01X-25500Y188500D02*
X-22500D01*
G01X-24000D02*
Y178500D01*
G01X-25500D02*
X-22500D01*
G01X-16500Y188500D02*
Y178500D01*
X-11500D01*
G01X-6750D02*
Y188500D01*
G01X-2000D02*
X-6750Y182333D01*
G01X-1250Y178500D02*
X-4625Y185166D01*
G01X3375Y179833D02*
X4375Y179000D01*
X5500Y178500D01*
X6500D01*
X7500Y179000D01*
X8250Y179833D01*
X8625Y181000D01*
X8375Y182166D01*
X7750Y183167D01*
X6625Y183833D01*
X5125Y184167D01*
X4250Y184833D01*
X3875Y186000D01*
X4125Y187167D01*
X4750Y188000D01*
X5625Y188500D01*
X6500D01*
X7375Y188167D01*
X8125Y187333D01*
G01X18750Y187667D02*
X18000Y188167D01*
X17125Y188500D01*
X16125D01*
X15000Y188000D01*
X14125Y187167D01*
X13500Y186167D01*
X13000Y184500D01*
X12875Y183000D01*
X13125Y181500D01*
X13500Y180500D01*
X14250Y179500D01*
X15125Y178833D01*
X16000Y178500D01*
X16875D01*
X17750Y178833D01*
X18500Y179333D01*
X19125Y180000D01*
G01X23500Y178500D02*
Y188500D01*
X26625D01*
X27625Y188000D01*
X28250Y187333D01*
X28500Y186000D01*
X28250Y184667D01*
X27500Y183833D01*
X26625Y183333D01*
X23500D01*
G01X26625D02*
X28500Y178500D01*
G01X38500D02*
X33500D01*
Y188500D01*
X38500D01*
G01X36500Y183667D02*
X33500D01*
G01X48500Y178500D02*
X43500D01*
Y188500D01*
X48500D01*
G01X46500Y183667D02*
X43500D01*
G01X53125Y178500D02*
Y188500D01*
X58875Y178500D01*
Y188500D01*
G01X73375Y179833D02*
X74375Y179000D01*
X75500Y178500D01*
X76500D01*
X77500Y179000D01*
X78250Y179833D01*
X78625Y181000D01*
X78375Y182166D01*
X77750Y183167D01*
X76625Y183833D01*
X75125Y184167D01*
X74250Y184833D01*
X73875Y186000D01*
X74125Y187167D01*
X74750Y188000D01*
X75625Y188500D01*
X76500D01*
X77375Y188167D01*
X78125Y187333D01*
G01X88500Y178500D02*
X83500D01*
Y188500D01*
X88500D01*
G01X86500Y183667D02*
X83500D01*
G01X98750Y187667D02*
X98000Y188167D01*
X97125Y188500D01*
X96125D01*
X95000Y188000D01*
X94125Y187167D01*
X93500Y186167D01*
X93000Y184500D01*
X92875Y183000D01*
X93125Y181500D01*
X93500Y180500D01*
X94250Y179500D01*
X95125Y178833D01*
X96000Y178500D01*
X96875D01*
X97750Y178833D01*
X98500Y179333D01*
X99125Y180000D01*
G01X106000Y178500D02*
X105000Y178667D01*
X104125Y179333D01*
X103375Y180333D01*
X102875Y181500D01*
X102625Y182833D01*
Y184167D01*
X102875Y185500D01*
X103375Y186667D01*
X104125Y187667D01*
X105000Y188333D01*
X106000Y188500D01*
X107000Y188333D01*
X107875Y187667D01*
X108625Y186667D01*
X109125Y185500D01*
X109375Y184167D01*
Y182833D01*
X109125Y181500D01*
X108625Y180333D01*
X107875Y179333D01*
X107000Y178667D01*
X106000Y178500D01*
G01X113125D02*
Y188500D01*
X118875Y178500D01*
Y188500D01*
G01X123250Y178500D02*
Y188500D01*
X125750D01*
X126750Y188000D01*
X127500Y187333D01*
X128125Y186333D01*
X128625Y185166D01*
X128750Y183500D01*
X128625Y181833D01*
X128125Y180667D01*
X127500Y179666D01*
X126750Y179000D01*
X125750Y178500D01*
X123250D01*
G01X132875D02*
X136000Y188500D01*
X139125Y178500D01*
G01X138000Y182000D02*
X134000D01*
G01X143500Y178500D02*
Y188500D01*
X146625D01*
X147625Y188000D01*
X148250Y187333D01*
X148500Y186000D01*
X148250Y184667D01*
X147500Y183833D01*
X146625Y183333D01*
X143500D01*
G01X146625D02*
X148500Y178500D01*
G01X156000D02*
Y183000D01*
X153500Y188500D01*
G01X158500D02*
X156000Y183000D01*
G01X6000Y168500D02*
X5000Y168167D01*
X4250Y167333D01*
X3750Y166333D01*
X3375Y165000D01*
X3250Y163500D01*
X3375Y162000D01*
X3750Y160667D01*
X4250Y159666D01*
X5000Y158833D01*
X6000Y158500D01*
X7000Y158833D01*
X7750Y159666D01*
X8250Y160667D01*
X8625Y162000D01*
X8750Y163500D01*
X8625Y165000D01*
X8250Y166333D01*
X7750Y167333D01*
X7000Y168167D01*
X6000Y168500D01*
G01X16000Y158500D02*
X16875Y158667D01*
X17875Y159167D01*
X18500Y160000D01*
X18750Y161167D01*
X18500Y162333D01*
X17750Y163333D01*
X16625Y163833D01*
X15375D01*
X14625Y164167D01*
X14000Y165000D01*
X13750Y166167D01*
X14125Y167333D01*
X15000Y168167D01*
X16000Y168500D01*
X17000Y168167D01*
X17875Y167333D01*
X18250Y166167D01*
X18000Y165000D01*
X17375Y164167D01*
X16625Y163833D01*
X15375D01*
X14250Y163333D01*
X13500Y162333D01*
X13250Y161167D01*
X13500Y160000D01*
X14125Y159167D01*
X15125Y158667D01*
X16000Y158500D01*
G01X24375Y161833D02*
X27625D01*
G01X94375D02*
X97625D01*
G01X106000Y168500D02*
X105000Y168167D01*
X104250Y167333D01*
X103750Y166333D01*
X103375Y165000D01*
X103250Y163500D01*
X103375Y162000D01*
X103750Y160667D01*
X104250Y159666D01*
X105000Y158833D01*
X106000Y158500D01*
X107000Y158833D01*
X107750Y159666D01*
X108250Y160667D01*
X108625Y162000D01*
X108750Y163500D01*
X108625Y165000D01*
X108250Y166333D01*
X107750Y167333D01*
X107000Y168167D01*
X106000Y168500D01*
G01X113250Y160000D02*
X114000Y159167D01*
X114875Y158667D01*
X116000Y158500D01*
X117125Y158833D01*
X118000Y159500D01*
X118625Y160667D01*
X118750Y162000D01*
X118500Y163333D01*
X117875Y164167D01*
X117000Y164833D01*
X116125Y165000D01*
X115250Y164833D01*
X114125Y164167D01*
X114500Y168500D01*
X117875D01*
G01X39500Y138500D02*
Y148500D01*
X42625D01*
X43625Y148000D01*
X44250Y147333D01*
X44500Y146000D01*
X44250Y144667D01*
X43500Y143833D01*
X42625Y143333D01*
X39500D01*
G01X42625D02*
X44500Y138500D01*
G01X54500D02*
X49500D01*
Y148500D01*
X54500D01*
G01X52500Y143667D02*
X49500D01*
G01X58875Y148500D02*
X62000Y138500D01*
X65125Y148500D01*
G01X78875Y138500D02*
X82000Y148500D01*
X85125Y138500D01*
G01X84000Y142000D02*
X80000D01*
G01X37000Y168500D02*
X36000Y168167D01*
X35250Y167333D01*
X34750Y166333D01*
X34375Y165000D01*
X34250Y163500D01*
X34375Y162000D01*
X34750Y160667D01*
X35250Y159666D01*
X36000Y158833D01*
X37000Y158500D01*
X38000Y158833D01*
X38750Y159666D01*
X39250Y160667D01*
X39625Y162000D01*
X39750Y163500D01*
X39625Y165000D01*
X39250Y166333D01*
X38750Y167333D01*
X38000Y168167D01*
X37000Y168500D01*
G01X48500Y158500D02*
Y168500D01*
X43875Y161333D01*
X50125D01*
G01X54625Y166833D02*
X55375Y167833D01*
X56250Y168333D01*
X57250Y168500D01*
X58500Y168167D01*
X59375Y167333D01*
X59625Y166333D01*
X59500Y165333D01*
X59000Y164500D01*
X56500Y162833D01*
X55375Y161667D01*
X54625Y160000D01*
X54375Y158500D01*
X59625D01*
G01X64250Y160500D02*
X65000Y159333D01*
X66000Y158667D01*
X67125Y158500D01*
X68125Y158667D01*
X69125Y159500D01*
X69750Y160500D01*
X69875Y161500D01*
X69625Y162666D01*
X68750Y163500D01*
X67875Y163833D01*
X66750D01*
G01X67875D02*
X68625Y164333D01*
X69250Y165166D01*
X69500Y166167D01*
X69250Y167167D01*
X68625Y168000D01*
X67500Y168500D01*
X66375Y168333D01*
X65250Y167667D01*
G01X78500Y158500D02*
Y168500D01*
X73875Y161333D01*
X80125D01*
G01X87000Y168500D02*
X86000Y168167D01*
X85250Y167333D01*
X84750Y166333D01*
X84375Y165000D01*
X84250Y163500D01*
X84375Y162000D01*
X84750Y160667D01*
X85250Y159666D01*
X86000Y158833D01*
X87000Y158500D01*
X88000Y158833D01*
X88750Y159666D01*
X89250Y160667D01*
X89625Y162000D01*
X89750Y163500D01*
X89625Y165000D01*
X89250Y166333D01*
X88750Y167333D01*
X88000Y168167D01*
X87000Y168500D01*
G01X109750Y31000D02*
Y-3000D01*
X131250D01*
Y31000D01*
X109750D01*
G01X180701Y-5942D02*
Y-2942D01*
G01X182868Y-4567D02*
X178534D01*
G01X180701Y92058D02*
Y95058D01*
G01X182868Y93433D02*
X178534D01*
G01X-85183Y-40000D02*
Y-35000D01*
X-86703D01*
X-87210Y-35250D01*
X-87590Y-35833D01*
X-87717Y-36500D01*
X-87590Y-37167D01*
X-87273Y-37667D01*
X-86703Y-37917D01*
X-85183D01*
G01X-90347Y-35833D02*
X-90727Y-35333D01*
X-91170Y-35083D01*
X-91677Y-35000D01*
X-92310Y-35167D01*
X-92753Y-35583D01*
X-92880Y-36083D01*
X-92817Y-36583D01*
X-92563Y-37000D01*
X-91297Y-37833D01*
X-90727Y-38417D01*
X-90347Y-39250D01*
X-90220Y-40000D01*
X-92880D01*
G01X-91081Y62032D02*
Y67032D01*
X-92601D01*
X-93108Y66782D01*
X-93488Y66199D01*
X-93615Y65532D01*
X-93488Y64865D01*
X-93171Y64365D01*
X-92601Y64115D01*
X-91081D01*
G01X-97448Y62032D02*
Y67032D01*
X-96688Y66032D01*
G01Y62032D02*
X-98208D01*
G01X-58450Y90670D02*
Y95670D01*
X-57690Y94670D01*
G01Y90670D02*
X-59210D01*
G01X-63550Y95670D02*
X-63043Y95503D01*
X-62663Y95087D01*
X-62410Y94587D01*
X-62220Y93920D01*
X-62157Y93170D01*
X-62220Y92420D01*
X-62410Y91753D01*
X-62663Y91253D01*
X-63043Y90837D01*
X-63550Y90670D01*
X-64057Y90837D01*
X-64437Y91253D01*
X-64690Y91753D01*
X-64880Y92420D01*
X-64943Y93170D01*
X-64880Y93920D01*
X-64690Y94587D01*
X-64437Y95087D01*
X-64057Y95503D01*
X-63550Y95670D01*
G01X-25000Y-77670D02*
Y-72670D01*
X-24240Y-73670D01*
G01Y-77670D02*
X-25760D01*
G01X-21183Y89000D02*
Y94000D01*
X-22703D01*
X-23210Y93750D01*
X-23590Y93167D01*
X-23717Y92500D01*
X-23590Y91833D01*
X-23273Y91333D01*
X-22703Y91083D01*
X-21183D01*
G01X-27550Y89000D02*
X-27993Y89083D01*
X-28500Y89333D01*
X-28817Y89750D01*
X-28943Y90333D01*
X-28817Y90917D01*
X-28437Y91417D01*
X-27867Y91667D01*
X-27233D01*
X-26853Y91833D01*
X-26537Y92250D01*
X-26410Y92833D01*
X-26600Y93417D01*
X-27043Y93833D01*
X-27550Y94000D01*
X-28057Y93833D01*
X-28500Y93417D01*
X-28690Y92833D01*
X-28563Y92250D01*
X-28247Y91833D01*
X-27867Y91667D01*
X-27233D01*
X-26663Y91417D01*
X-26283Y90917D01*
X-26157Y90333D01*
X-26283Y89750D01*
X-26600Y89333D01*
X-27107Y89083D01*
X-27550Y89000D01*
G01X9817Y-78000D02*
Y-73000D01*
X8297D01*
X7790Y-73250D01*
X7410Y-73833D01*
X7283Y-74500D01*
X7410Y-75167D01*
X7727Y-75667D01*
X8297Y-75917D01*
X9817D01*
G01X4843Y-77250D02*
X4463Y-77667D01*
X4020Y-77917D01*
X3450Y-78000D01*
X2880Y-77833D01*
X2437Y-77500D01*
X2120Y-76917D01*
X2057Y-76250D01*
X2183Y-75583D01*
X2500Y-75167D01*
X2943Y-74833D01*
X3387Y-74750D01*
X3830Y-74833D01*
X4400Y-75167D01*
X4210Y-73000D01*
X2500D01*
G01X1126Y74333D02*
Y79333D01*
X1886Y78333D01*
G01Y74333D02*
X366D01*
G01X2329Y88500D02*
X1949Y89000D01*
X1506Y89250D01*
X999Y89333D01*
X366Y89166D01*
X-77Y88750D01*
X-204Y88250D01*
X-141Y87750D01*
X113Y87333D01*
X1379Y86500D01*
X1949Y85916D01*
X2329Y85083D01*
X2456Y84333D01*
X-204D01*
G01X26367Y66500D02*
X26050Y66000D01*
X25670Y65667D01*
X25227Y65500D01*
X24720Y65667D01*
X24340Y66000D01*
X23960Y66500D01*
X23833Y67167D01*
Y70500D01*
G01X21267Y65500D02*
Y70500D01*
X19747D01*
X19240Y70250D01*
X18860Y69667D01*
X18733Y69000D01*
X18860Y68333D01*
X19177Y67833D01*
X19747Y67583D01*
X21267D01*
G01X14900Y65500D02*
Y70500D01*
X15660Y69500D01*
G01Y65500D02*
X14140D01*
G01X29000Y90670D02*
Y95670D01*
X29760Y94670D01*
G01Y90670D02*
X28240D01*
G01X38936Y75083D02*
X38556Y74666D01*
X38113Y74416D01*
X37543Y74333D01*
X36973Y74500D01*
X36530Y74833D01*
X36213Y75416D01*
X36150Y76083D01*
X36276Y76750D01*
X36593Y77166D01*
X37036Y77500D01*
X37480Y77583D01*
X37923Y77500D01*
X38493Y77166D01*
X38303Y79333D01*
X36593D01*
G01X38746Y86416D02*
X38303Y87000D01*
X37923Y87333D01*
X37416Y87500D01*
X36973Y87333D01*
X36656Y87000D01*
X36403Y86500D01*
X36340Y85916D01*
X36403Y85416D01*
X36656Y84916D01*
X37036Y84500D01*
X37480Y84333D01*
X37986Y84500D01*
X38430Y85000D01*
X38683Y85750D01*
X38746Y86583D01*
X38620Y87666D01*
X38430Y88250D01*
X38113Y88833D01*
X37670Y89250D01*
X37226Y89333D01*
X36783Y89166D01*
X36466Y88750D01*
G01X45460Y-78400D02*
X45017Y-78317D01*
X44510Y-78067D01*
X44193Y-77650D01*
X44067Y-77067D01*
X44193Y-76483D01*
X44573Y-75983D01*
X45143Y-75733D01*
X45777D01*
X46157Y-75567D01*
X46473Y-75150D01*
X46600Y-74567D01*
X46410Y-73983D01*
X45967Y-73567D01*
X45460Y-73400D01*
X44953Y-73567D01*
X44510Y-73983D01*
X44320Y-74567D01*
X44447Y-75150D01*
X44763Y-75567D01*
X45143Y-75733D01*
X45777D01*
X46347Y-75983D01*
X46727Y-76483D01*
X46853Y-77067D01*
X46727Y-77650D01*
X46410Y-78067D01*
X45903Y-78317D01*
X45460Y-78400D01*
G01X64700Y-78000D02*
Y-73000D01*
X65460Y-74000D01*
G01Y-78000D02*
X63940D01*
G01X44540Y91400D02*
X44097Y91483D01*
X43590Y91733D01*
X43273Y92150D01*
X43147Y92733D01*
X43273Y93317D01*
X43653Y93817D01*
X44223Y94067D01*
X44857D01*
X45237Y94233D01*
X45553Y94650D01*
X45680Y95233D01*
X45490Y95817D01*
X45047Y96233D01*
X44540Y96400D01*
X44033Y96233D01*
X43590Y95817D01*
X43400Y95233D01*
X43527Y94650D01*
X43843Y94233D01*
X44223Y94067D01*
X44857D01*
X45427Y93817D01*
X45807Y93317D01*
X45933Y92733D01*
X45807Y92150D01*
X45490Y91733D01*
X44983Y91483D01*
X44540Y91400D01*
G01X101817Y-78000D02*
Y-73000D01*
X100297D01*
X99790Y-73250D01*
X99410Y-73833D01*
X99283Y-74500D01*
X99410Y-75167D01*
X99727Y-75667D01*
X100297Y-75917D01*
X101817D01*
G01X96653D02*
X96210Y-75333D01*
X95830Y-75000D01*
X95323Y-74833D01*
X94880Y-75000D01*
X94563Y-75333D01*
X94310Y-75833D01*
X94247Y-76417D01*
X94310Y-76917D01*
X94563Y-77417D01*
X94943Y-77833D01*
X95387Y-78000D01*
X95893Y-77833D01*
X96337Y-77333D01*
X96590Y-76583D01*
X96653Y-75750D01*
X96527Y-74667D01*
X96337Y-74083D01*
X96020Y-73500D01*
X95577Y-73083D01*
X95133Y-73000D01*
X94690Y-73167D01*
X94373Y-73583D01*
G01X83817Y89000D02*
Y94000D01*
X82297D01*
X81790Y93750D01*
X81410Y93167D01*
X81283Y92500D01*
X81410Y91833D01*
X81727Y91333D01*
X82297Y91083D01*
X83817D01*
G01X78527Y89583D02*
X78083Y89167D01*
X77577Y89000D01*
X77070Y89167D01*
X76627Y89667D01*
X76310Y90417D01*
X76183Y91167D01*
Y92083D01*
X76310Y92833D01*
X76627Y93500D01*
X77007Y93833D01*
X77450Y94000D01*
X77957Y93833D01*
X78337Y93500D01*
X78590Y93000D01*
X78717Y92333D01*
X78590Y91750D01*
X78273Y91167D01*
X77893Y90833D01*
X77450Y90750D01*
X76943Y90917D01*
X76563Y91333D01*
X76183Y92083D01*
G01X117803Y-76417D02*
X117360Y-75833D01*
X116980Y-75500D01*
X116473Y-75333D01*
X116030Y-75500D01*
X115713Y-75833D01*
X115460Y-76333D01*
X115397Y-76917D01*
X115460Y-77417D01*
X115713Y-77917D01*
X116093Y-78333D01*
X116537Y-78500D01*
X117043Y-78333D01*
X117487Y-77833D01*
X117740Y-77083D01*
X117803Y-76250D01*
X117677Y-75167D01*
X117487Y-74583D01*
X117170Y-74000D01*
X116727Y-73583D01*
X116283Y-73500D01*
X115840Y-73667D01*
X115523Y-74083D01*
G01X107420Y2893D02*
X107837Y2513D01*
X108087Y2070D01*
X108170Y1500D01*
X108003Y930D01*
X107670Y487D01*
X107087Y170D01*
X106420Y107D01*
X105753Y233D01*
X105337Y550D01*
X105003Y993D01*
X104920Y1437D01*
X105003Y1880D01*
X105337Y2450D01*
X103170Y2260D01*
Y550D01*
G01X108170Y29000D02*
X103170D01*
X104170Y29760D01*
G01X108170D02*
Y28240D01*
G01X115000Y90670D02*
Y95670D01*
X115760Y94670D01*
G01Y90670D02*
X114240D01*
G01X135087Y5203D02*
X134503Y4760D01*
X134170Y4380D01*
X134003Y3873D01*
X134170Y3430D01*
X134503Y3113D01*
X135003Y2860D01*
X135587Y2797D01*
X136087Y2860D01*
X136587Y3113D01*
X137003Y3493D01*
X137170Y3937D01*
X137003Y4443D01*
X136503Y4887D01*
X135753Y5140D01*
X134920Y5203D01*
X133837Y5077D01*
X133253Y4887D01*
X132670Y4570D01*
X132253Y4127D01*
X132170Y3683D01*
X132337Y3240D01*
X132753Y2923D01*
G01X133003Y25203D02*
X132503Y24823D01*
X132253Y24380D01*
X132170Y23873D01*
X132337Y23240D01*
X132753Y22797D01*
X133253Y22670D01*
X133753Y22733D01*
X134170Y22987D01*
X135003Y24253D01*
X135587Y24823D01*
X136420Y25203D01*
X137170Y25330D01*
Y22670D01*
G01X142817Y11000D02*
Y16000D01*
X141297D01*
X140790Y15750D01*
X140410Y15167D01*
X140283Y14500D01*
X140410Y13833D01*
X140727Y13333D01*
X141297Y13083D01*
X142817D01*
G01X136577Y11000D02*
X136450Y12083D01*
X136260Y13000D01*
X136007Y13833D01*
X135690Y14750D01*
X135183Y16000D01*
X137717D01*
G01X214817Y-44000D02*
Y-39000D01*
X213297D01*
X212790Y-39250D01*
X212410Y-39833D01*
X212283Y-40500D01*
X212410Y-41167D01*
X212727Y-41667D01*
X213297Y-41917D01*
X214817D01*
G01X209843Y-43000D02*
X209463Y-43583D01*
X208957Y-43917D01*
X208387Y-44000D01*
X207880Y-43917D01*
X207373Y-43500D01*
X207057Y-43000D01*
X206993Y-42500D01*
X207120Y-41917D01*
X207563Y-41500D01*
X208007Y-41333D01*
X208577D01*
G01X208007D02*
X207627Y-41083D01*
X207310Y-40667D01*
X207183Y-40167D01*
X207310Y-39667D01*
X207627Y-39250D01*
X208197Y-39000D01*
X208767Y-39083D01*
X209337Y-39417D01*
G01X214817Y59000D02*
Y64000D01*
X213297D01*
X212790Y63750D01*
X212410Y63167D01*
X212283Y62500D01*
X212410Y61833D01*
X212727Y61333D01*
X213297Y61083D01*
X214817D01*
G01X207690Y59000D02*
Y64000D01*
X210033Y60417D01*
X206867D01*
M02*
